<?xml version="1.0" standalone="no"?>
<!DOCTYPE svg PUBLIC "-//W3C//DTD SVG 1.1//EN" "http://www.w3.org/Graphics/SVG/1.1/DTD/svg11.dtd" >
<svg xmlns="http://www.w3.org/2000/svg" xmlns:xlink="http://www.w3.org/1999/xlink" version="1.1">
<metadata></metadata>
<defs>
<font id="adriane_textbold" horiz-adv-x="980" >
<font-face units-per-em="2048" ascent="1536" descent="-512" />
<missing-glyph horiz-adv-x="655" />
<glyph unicode="&#xfb01;" horiz-adv-x="1445" d="M33 0v80q98 0 135 38t37 113v684h-172v68l172 41v168q0 98 33.5 177t104.5 134.5t181.5 85t261.5 29.5q61 0 138 -11.5t145 -42t114 -87t46 -144.5q0 -37 -17.5 -64.5t-45 -47t-63.5 -28.5t-73 -9l-14 12l-51 277l-15 10q-47 23 -91 29t-79 6q-59 0 -114.5 -8.5 t-100.5 -33t-71.5 -68.5t-26.5 -118v-266h657l88 25l17 -15v-805q0 -76 37 -112.5t139 -36.5l8 -17l-8 -63h-610v80q98 0 135 37t37 112v656l-500 30v-684q0 -37 7 -65.5t34 -48t76 -28.5t135 -9l8 -17l-6 -63h-688z" />
<glyph unicode="&#xfb02;" horiz-adv-x="1449" d="M33 0v80q98 0 135 38t37 113v684h-172v68l172 41v168q0 197 134 311.5t392 114.5q66 0 152 -11.5t161 -47.5l170 49l17 -15v-1362q0 -76 37 -113.5t141 -37.5l8 -17l-8 -63h-612v80q98 0 135 38t37 111v686h-502v-686q0 -37 7 -64.5t34 -47t76 -28.5t135 -9l8 -17l-6 -63 h-688zM467 1024h502v238l-51 211l-9 12q-51 23 -95 28t-85 5q-35 0 -80 -8.5t-85 -33t-68.5 -68.5t-28.5 -118v-266z" />
<glyph unicode="&#xfb03;" horiz-adv-x="2211" d="M33 0v80q98 0 135 38t37 115v682h-172v68l172 41v125q0 195 140 310.5t431 115.5q72 0 165 -16.5t165 -59.5q72 57 182.5 88t263.5 31q61 0 138 -11.5t145 -42t114 -87t46 -144.5q0 -37 -17.5 -64.5t-45 -47t-63.5 -28.5t-73 -9l-14 12l-51 277l-15 10q-47 23 -91 29 t-79 6q-59 0 -115.5 -8.5t-100.5 -33t-71.5 -68.5t-27.5 -118v-266h659l88 25l17 -15v-805q0 -76 36.5 -112.5t139.5 -36.5l8 -17l-8 -63h-610v80q98 0 135 37t37 112v656l-502 30v-684q0 -37 7 -65.5t33.5 -48t76 -28.5t135.5 -9l8 -17l-6 -63h-688v80q98 0 135 38t37 113 v684h-502v-684q0 -37 7 -65.5t34 -48t76 -28.5t135 -9l8 -17l-8 -63h-686zM467 1024h502v168q0 35 3 65.5t13 59.5q-33 78 -104.5 119t-153.5 41q-47 0 -94 -14.5t-84 -42t-59.5 -71.5t-22.5 -102v-223z" />
<glyph unicode="&#xfb04;" horiz-adv-x="2213" d="M33 0v80q98 0 135 38t37 113v684h-172v68l172 41v125q0 195 140 310.5t431 115.5q72 0 164 -15.5t162 -58.5q68 55 166 86t227 31q66 0 152 -11.5t161 -47.5l170 49l17 -15v-1362q0 -76 36.5 -113.5t141.5 -37.5l8 -17l-8 -63h-612v80q98 0 135 38t37 111v686h-502v-686 q0 -37 7 -64.5t33.5 -47t76 -28.5t135.5 -9l8 -17l-6 -63h-688v80q98 0 135 38t37 113v684h-502v-684q0 -37 8 -65.5t34 -48t76 -28.5t134 -9l8 -17l-8 -63h-686zM467 1024h502v168q0 35 3 65.5t13 59.5q-33 78 -104.5 119t-153.5 41q-47 0 -94 -14.5t-84 -42t-59.5 -71.5 t-22.5 -102v-223zM1231 1024h502v238l-52 211l-8 12q-51 23 -95 28t-85 5q-35 0 -80 -8.5t-85 -33t-68.5 -68.5t-28.5 -118v-266z" />
<glyph horiz-adv-x="0" />
<glyph horiz-adv-x="682" />
<glyph unicode=" "  horiz-adv-x="655" />
<glyph unicode="&#x09;" horiz-adv-x="655" />
<glyph unicode="&#xa0;" horiz-adv-x="655" />
<glyph unicode="!" horiz-adv-x="571" d="M123 143q0 72 49 120t119 48q68 0 118 -48t50 -120q0 -70 -50.5 -119t-117.5 -49q-70 0 -119 49.5t-49 118.5zM141 1563q0 63 44 107t108 44q61 0 106 -44t45 -107l-108 -1084l-86 -12z" />
<glyph unicode="&#x22;" horiz-adv-x="761" d="M113 1321q0 51 29.5 87t80.5 36q49 0 79 -36t30 -87l-68 -369l-84 -10zM430 1321q0 51 29.5 87t81.5 36q49 0 78.5 -36t29.5 -87l-67 -369l-84 -10z" />
<glyph unicode="#" horiz-adv-x="1372" d="M113 328l34 151h279l57 254h-276l35 152h276l78 327h141l-78 -327h172l78 327h142l-78 -327h287l-35 -152h-287l-57 -254h284l-35 -151h-284l-76 -328h-141l76 328h-173l-75 -328h-142l76 328h-278zM567 479h172l58 254h-172z" />
<glyph unicode="$" horiz-adv-x="1060" d="M33 389l20 19l99 6q0 -78 28.5 -139.5t75.5 -105.5t107.5 -68.5t123.5 -28.5v522q-74 37 -147.5 77t-134 94t-98 130t-37.5 182q0 90 36.5 160t96 119t134.5 75.5t150 30.5v252h103v-254q33 -4 68.5 -8t66.5 -7t53.5 -6t32.5 -3q29 0 69 3t66 23l27 -18l-72 -326l-14 -10 h-47q0 39 -16.5 80t-48.5 76.5t-78 60.5t-107 35v-494q76 -35 153.5 -74.5t141 -95t103.5 -129t40 -178.5q0 -88 -37 -160.5t-98.5 -126t-140 -87t-162.5 -42.5v-268h-103v264q-35 0 -81 5.5t-102 16.5t-119.5 31.5t-129.5 53.5zM315 1161q0 -86 48.5 -142t123.5 -99v440 q-31 -4 -61.5 -17.5t-55 -37t-40 -59.5t-15.5 -85zM590 80q68 16 122 70.5t54 156.5q0 82 -50 136.5t-126 97.5v-461z" />
<glyph unicode="%" horiz-adv-x="1675" d="M113 1075q0 74 23.5 139.5t66.5 114.5t106.5 77t143.5 28t143 -28t106 -77t67 -114.5t24 -139.5q0 -76 -24 -141.5t-67 -113.5t-106 -75.5t-143 -27.5q-82 0 -145.5 27.5t-106.5 75.5t-65.5 113.5t-22.5 141.5zM305 1075q2 -141 45.5 -217t102.5 -76t103 76t44 217 q0 137 -44 214t-103 77t-103.5 -77t-44.5 -214zM344 -8l893 1444l84 -62l-893 -1446zM883 334q0 74 23.5 139.5t66.5 114.5t106.5 76.5t143.5 27.5t143.5 -27.5t106.5 -76.5t66.5 -114.5t23.5 -139.5q0 -76 -23.5 -141.5t-66.5 -113.5t-106.5 -76t-143.5 -28 q-82 0 -145.5 28t-106.5 76t-65.5 113.5t-22.5 141.5zM1075 334q2 -141 45.5 -217t102.5 -76t103 76t44 217q0 137 -44 214t-103 77t-103.5 -77t-44.5 -214z" />
<glyph unicode="&#x26;" horiz-adv-x="1411" d="M43 264q0 76 25.5 138.5t68.5 108.5t97.5 78t111.5 50l-20 25q-29 39 -55.5 75.5t-47 78.5t-33 89t-12.5 107q0 94 34 174t95.5 136t147.5 88t190 32q57 0 108.5 -14.5t90.5 -41t61.5 -67.5t22.5 -92q0 -37 -15.5 -63.5t-39 -45t-52 -27t-57.5 -8.5l-14 13l-58 254 l-14 10q-137 0 -201.5 -70.5t-64.5 -175.5q0 -57 7 -97t21.5 -74t37 -63.5t54.5 -66.5l388 -436q47 86 70.5 189.5t23.5 203.5l-172 41v74h528v-74l-194 -41q-8 -43 -25.5 -96t-43.5 -111.5t-60.5 -121t-77.5 -119.5l114 -127q33 -37 77 -52.5t85 -15.5q29 0 65 8t64 19 l17 -21l-17 -51q-47 -45 -115.5 -77t-181.5 -32q-57 0 -98 8.5t-71.5 25t-55.5 40t-49 51.5l-25 29q-88 -70 -193.5 -112t-244.5 -42q-57 0 -110.5 18.5t-95.5 54.5t-66.5 90.5t-24.5 125.5zM293 348q0 -92 54 -146.5t155 -54.5q59 0 115.5 14.5t103.5 35.5l-332 391 q-47 -43 -71.5 -106.5t-24.5 -133.5z" />
<glyph unicode="'" horiz-adv-x="444" d="M113 1321q0 51 29.5 87t80.5 36q49 0 79 -36t30 -87l-68 -369l-84 -10z" />
<glyph unicode="(" horiz-adv-x="665" d="M113 539q0 156 30.5 297t81.5 267t117 238.5t135 212.5l66 -30q-47 -94 -88 -197.5t-72 -223.5t-48.5 -260.5t-17.5 -305.5q0 -156 18.5 -295.5t49.5 -263t72 -231t86 -200.5l-66 -30q-70 100 -135.5 211.5t-116.5 238.5t-81.5 269.5t-30.5 302.5z" />
<glyph unicode=")" horiz-adv-x="665" d="M123 -453q45 92 86 200t71.5 231.5t48 263t17.5 295.5q0 166 -17.5 306t-48 260t-71.5 223.5t-86 197.5l65 30q70 -100 135.5 -212.5t117 -238.5t82 -267.5t30.5 -296.5q0 -160 -30.5 -302.5t-82 -269.5t-117 -238.5t-135.5 -211.5z" />
<glyph unicode="*" horiz-adv-x="839" d="M113 946l237 123l17 -16l12 -21l-195 -180q-33 10 -51 37q-8 12 -12 26.5t-8 30.5zM113 1225q4 35 20 57q20 29 51 39l193 -178l-10 -23l-17 -16zM360 758l37 264l23 4l24 -4l37 -260q-27 -20 -61 -21q-27 0 -60 17zM360 1417q33 16 60 17q35 0 61 -21l-37 -260l-24 -4 l-23 4zM465 1032l10 21l17 18l235 -119q0 -35 -18 -61q-16 -23 -47 -39zM467 1139l195 182q16 -6 26 -16.5t21 -22.5q18 -27 18 -61l-233 -121l-19 18z" />
<glyph unicode="+" horiz-adv-x="1304" d="M113 459v162h456v458h166v-458h457v-162h-457v-459h-166v459h-456z" />
<glyph unicode="," horiz-adv-x="626" d="M133 143q0 70 50 119t118 49q55 0 93 -27.5t59.5 -68.5t31 -91t9.5 -95q0 -137 -64.5 -267.5t-189.5 -222.5l-41 49v9q92 76 138 180t36 215q-37 -16 -72 -17q-68 0 -118 48.5t-50 119.5z" />
<glyph unicode="-" horiz-adv-x="876" d="M113 455v161h651v-161h-651z" />
<glyph unicode="." horiz-adv-x="602" d="M133 143q0 70 50 119t118 49q70 0 119 -49t49 -119q0 -72 -49 -120t-119 -48q-68 0 -118 48.5t-50 119.5z" />
<glyph unicode="/" horiz-adv-x="768" d="M41 -483l547 2035h139l-547 -2035h-139z" />
<glyph unicode="0" horiz-adv-x="1212" d="M61 717q0 166 36 304t105.5 236.5t171 152.5t232.5 54t233.5 -54t171 -152.5t104.5 -236.5t36 -304t-36 -303.5t-104.5 -236.5t-171 -153.5t-233.5 -54.5t-232.5 54.5t-171 153.5t-105.5 236.5t-36 303.5zM334 717q0 -150 15.5 -269.5t49 -204.5t84.5 -130t123 -45 q70 0 122 45t85 130t49.5 204.5t16.5 271.5q0 150 -16.5 269.5t-49.5 203.5t-85 129t-122 45q-72 0 -123 -45t-84.5 -130t-49 -205t-15.5 -269z" />
<glyph unicode="1" horiz-adv-x="905" d="M72 0v86q76 0 123 9t73.5 27.5t36.5 46.5t10 62v893q0 35 -9 62.5t-34.5 46t-68.5 28t-111 9.5v86l453 78h33v-1203q0 -35 9 -62.5t35.5 -46t74.5 -27.5t128 -9l9 -16l-9 -70h-753z" />
<glyph unicode="2" horiz-adv-x="1236" d="M72 0v104q68 43 138.5 86t139 88.5t131 94.5t115.5 108q86 96 134 224.5t48 281.5q0 186 -76.5 282.5t-193.5 96.5q-35 0 -71 -7t-72 -26l-15 -16l-43 -256l-16 -12q-27 0 -57.5 10t-57 29.5t-44 50t-17.5 73.5q0 68 40 115t101 78t137 45t150 14q135 0 231 -37.5 t156.5 -103.5t88.5 -154t28 -188q0 -141 -58.5 -248.5t-146.5 -194.5t-189.5 -162t-187.5 -151v-16h377q45 0 82 6t68.5 27.5t59 62.5t56.5 109h49l8 -19l-49 -395h-1044z" />
<glyph unicode="3" horiz-adv-x="1128" d="M61 221q0 43 17.5 74t44.5 50.5t57.5 29.5t57.5 10l16 -12l43 -246l14 -16q41 -20 79 -29.5t73 -9.5q92 0 155.5 25.5t103.5 69.5t58.5 101.5t18.5 122.5q0 137 -85 223t-284 86q-27 0 -56.5 -3t-56.5 -9l-6 92q127 16 208 45t128 69t64.5 90t17.5 110q0 55 -14.5 105 t-43 87t-74.5 58.5t-110 21.5q-29 0 -62.5 -7t-70.5 -26l-14 -16l-43 -256l-16 -12q-27 0 -57.5 10t-57.5 29.5t-44.5 50t-17.5 73.5q0 70 39 119t100.5 78t135.5 42t143 13q125 0 214 -25.5t146.5 -72.5t85 -113.5t27.5 -148.5q0 -43 -11 -92t-45 -92t-94.5 -74t-158.5 -37 v-12q111 -12 184.5 -48t117.5 -85.5t61.5 -108.5t17.5 -119q0 -90 -37 -175t-110.5 -149.5t-183 -103.5t-253.5 -39q-76 0 -150.5 13.5t-135 42t-98.5 77t-38 119.5z" />
<glyph unicode="4" horiz-adv-x="1253" d="M51 373v90l670 971h188v-885h273l-29 -176h-244v-142q0 -35 9.5 -62.5t36 -46t74.5 -27.5t128 -9l8 -16l-8 -70h-756v86q76 0 123 9t74 27.5t37 46.5t10 62v142h-594zM215 549h430v625z" />
<glyph unicode="5" horiz-adv-x="1116" d="M61 221q0 43 17.5 74t44.5 50.5t57.5 29.5t57.5 10l16 -12l43 -256l14 -17q78 -39 162 -39q78 0 136.5 30t98.5 81t60 118.5t20 141.5q0 72 -24.5 140.5t-75.5 122t-131 86t-190 32.5q-72 0 -158 -12l20 633h473q92 0 164 29.5t107 99.5h39l8 -19l-43 -321h-633l-20 -320 q53 8 107 12.5t110 4.5q133 0 230 -36t159.5 -96.5t93.5 -138.5t31 -162q0 -100 -37 -193t-107.5 -166t-175 -116t-241.5 -43q-80 0 -158 13.5t-138.5 43t-98.5 78t-38 117.5z" />
<glyph unicode="6" horiz-adv-x="1103" d="M61 535q0 178 58.5 331.5t168 275.5t266.5 208t355 129l23 -82q-143 -55 -246.5 -122t-173.5 -150t-108.5 -183t-55.5 -223q55 53 129 76.5t144 23.5q80 0 155.5 -29.5t135 -83t95 -128t35.5 -166.5q0 -88 -27.5 -168t-87 -141.5t-151.5 -97.5t-219 -36 q-141 0 -235.5 52.5t-152.5 133.5t-83 181t-25 199zM332 508q0 -78 13 -158t41 -145.5t70 -107.5t99 -42q104 0 160.5 87t56.5 245q0 156 -66.5 242t-170.5 86q-45 0 -99.5 -20.5t-95.5 -65.5q-4 -27 -6 -57.5t-2 -63.5z" />
<glyph unicode="7" horiz-adv-x="1009" d="M31 1024l49 410h897l2 -43l-434 -1391l-291 20l-10 25l581 1161v17h-438q-43 0 -84 -6.5t-80 -28t-73.5 -64.5t-65.5 -118h-45z" />
<glyph unicode="8" horiz-adv-x="1138" d="M61 338q0 98 37 166.5t90.5 114t112.5 68t107 32.5q-51 27 -100.5 57.5t-88.5 72.5t-62.5 99.5t-23.5 138.5q0 92 36 162t96.5 118t137 72.5t158.5 24.5q57 0 130 -14t137.5 -50t108.5 -96.5t44 -154.5q0 -72 -23.5 -124t-60.5 -89t-82 -58.5t-86 -29.5q74 -33 137.5 -72 t110.5 -92t73.5 -125t26.5 -170q0 -96 -43 -174t-114.5 -132t-164.5 -84t-194 -30q-37 0 -89 6.5t-107.5 21.5t-109.5 42t-97 67.5t-70 97t-27 134.5zM299 334q0 -74 23.5 -125t62.5 -84t86 -48.5t96 -15.5t95.5 12.5t83 40t58 71.5t21.5 106q0 76 -31.5 135t-83 106.5 t-116.5 85t-133 68.5q-20 -16 -48 -47t-53.5 -75t-43 -102.5t-17.5 -127.5zM367 1186q0 -70 25.5 -118t67.5 -84t97.5 -61.5t116.5 -48.5q16 18 34.5 46t34 64t25.5 76t10 81q0 68 -17.5 112.5t-46 72.5t-66.5 40t-81 12q-33 0 -68.5 -10t-64 -32.5t-48 -59.5t-19.5 -90z " />
<glyph unicode="9" horiz-adv-x="1083" d="M41 1022q0 88 27.5 168t87 141.5t151.5 97t219 35.5q141 0 235.5 -52t153 -133t83 -181.5t24.5 -198.5q0 -178 -58.5 -331.5t-168 -275.5t-266 -208t-355.5 -129l-22 82q143 55 246.5 121.5t173 149.5t108.5 183.5t55 223.5q-55 -53 -129 -77t-143 -24q-80 0 -156 30 t-135 83t-95 128t-36 167zM311 1047q0 -156 66.5 -242t171.5 -86q45 0 99 20.5t95 65.5q4 27 6.5 57.5t2.5 63.5q0 78 -13.5 157.5t-40 145t-69.5 107.5t-101 42q-104 0 -160.5 -87t-56.5 -244z" />
<glyph unicode=":" horiz-adv-x="602" d="M133 143q0 70 50 119t118 49q70 0 119 -49t49 -119q0 -72 -49 -120t-119 -48q-68 0 -118 48.5t-50 119.5zM133 881q0 70 50 119t118 49q70 0 119 -49.5t49 -118.5q0 -72 -49 -120t-119 -48q-68 0 -118 48t-50 120z" />
<glyph unicode=";" horiz-adv-x="626" d="M133 143q0 70 50 119t118 49q55 0 92 -27.5t59.5 -69.5t32 -92t9.5 -95q0 -135 -64.5 -265.5t-189.5 -222.5l-41 49v9q92 76 138 180t36 215q-37 -16 -72 -17q-68 0 -118 48.5t-50 119.5zM133 881q0 70 50 119t118 49q70 0 119 -49.5t49 -118.5q0 -72 -49 -120t-119 -48 q-68 0 -118 48t-50 120z" />
<glyph unicode="&#x3c;" horiz-adv-x="1191" d="M113 455v161l966 457v-178l-780 -360l780 -359v-178z" />
<glyph unicode="=" horiz-adv-x="1304" d="M113 229v162h1079v-162h-1079zM113 676v166h1079v-166h-1079z" />
<glyph unicode="&#x3e;" horiz-adv-x="1191" d="M113 -2v178l778 359l-778 360v178l966 -457v-161z" />
<glyph unicode="?" horiz-adv-x="1007" d="M123 1493q0 68 36 111t91 67.5t122.5 33.5t129.5 9q80 0 150.5 -17.5t124.5 -56t86 -100t32 -149.5q0 -92 -43 -162t-108.5 -126t-140.5 -103.5t-140.5 -95.5t-108.5 -100t-43 -118q0 -63 35 -95t76 -32q84 0 118.5 47t34.5 107l21 14q33 -14 52.5 -45t19.5 -72 q0 -29 -15.5 -57.5t-42 -51t-64.5 -36.5t-81 -14q-29 0 -71 8t-81 34.5t-67.5 73.5t-28.5 125q0 82 31 148.5t77 125t100 110.5t100 105.5t77 109t31 120.5q0 72 -18.5 116t-46 68.5t-58.5 32.5t-53 8q-43 0 -82 -12l-15 -10l-57 -252l-14 -12q-29 0 -58.5 8t-53 26.5 t-39 45t-15.5 63.5zM274 143q0 72 49.5 120t118.5 48q68 0 118 -48t50 -120q0 -70 -50 -119t-118 -49q-70 0 -119 49.5t-49 118.5z" />
<glyph unicode="@" horiz-adv-x="2134" d="M82 504q0 180 72.5 360t206 325.5t323.5 237t424 91.5q225 0 401.5 -61.5t297 -170t183 -258t62.5 -328.5q0 -68 -19.5 -147.5t-59.5 -159.5t-100.5 -155.5t-141 -133t-183 -93.5t-227.5 -36q-43 0 -81 19.5t-61.5 58.5t-29.5 98.5t14 139.5l47 178h-28q-31 -94 -72 -183 t-92 -158t-111.5 -110t-130.5 -41q-106 0 -162.5 93.5t-56.5 253.5q0 125 53.5 249.5t136 225t186 164t204.5 63.5q10 0 51 -2t88 -14l10 55h227l11 -8l-152 -852q-18 -94 51 -94q113 12 195 66t135 136t79 182.5t26 202.5q0 184 -60.5 314.5t-162 212.5t-234.5 119.5 t-277 37.5q-162 0 -309 -60t-260 -173t-179.5 -273.5t-66.5 -361.5q0 -225 67.5 -387t182.5 -268.5t265.5 -156.5t314.5 -50q154 0 265.5 28.5t221.5 88.5l10 -2l29 -74q-135 -102 -288.5 -142t-295.5 -40q-195 0 -376 69.5t-319 198.5t-221 312t-83 413zM801 344 q0 -113 22.5 -152.5t53.5 -39.5q45 0 91 52t88 133t78.5 177t64.5 183t44.5 151.5t18.5 85.5l-19 12q-90 -4 -170 -60.5t-140.5 -142.5t-96 -191.5t-35.5 -207.5z" />
<glyph unicode="A" horiz-adv-x="1564" d="M20 0v61l76 29q51 20 70.5 52t34.5 67l458 1225l250 22l13 -10l430 -1233q10 -33 33.5 -66.5t78.5 -52.5l80 -26v-68h-655v63l127 37q33 10 45 23.5t12 30.5q0 12 -5 31.5t-11 37.5l-115 344h-479l-125 -350q-4 -12 -9 -30.5t-5 -28.5q0 -23 9 -38.5t36 -21.5l141 -35 v-63h-490zM492 659h419l-202 615z" />
<glyph unicode="B" horiz-adv-x="1296" d="M63 0v86q104 0 143.5 37t39.5 108v971q0 72 -39 109t-144 37v86h646q150 0 242.5 -36t145 -89.5t70 -113.5t17.5 -110q0 -47 -16.5 -96t-50.5 -92t-89 -77t-131 -52v-14q80 -14 145.5 -43t112.5 -74t72.5 -107.5t25.5 -144.5q0 -84 -27.5 -154.5t-86 -122t-147.5 -80 t-212 -28.5h-717zM520 231q0 -72 37 -108.5t139 -36.5q90 0 146.5 28.5t87.5 75t41 101.5t10 108q0 55 -20.5 109.5t-61.5 98.5t-103.5 72t-148.5 28h-127v-476zM520 803q14 -2 27.5 -2h27.5q86 0 148.5 23.5t103.5 62.5t60.5 90t19.5 108q0 35 -8 80t-31.5 86t-65.5 69 t-112 28q-100 0 -135 -38t-35 -108v-399z" />
<glyph unicode="C" horiz-adv-x="1372" d="M43 715q0 186 62.5 327.5t171 234.5t256 140t317.5 47q33 0 78 -4t90 -10t85 -10t66 -4q43 0 70 8t41 18l27 -18l-72 -326l-14 -10h-43q-8 66 -41 114t-80 79.5t-101.5 47t-105.5 15.5q-121 0 -215 -46t-158.5 -130t-97.5 -204t-33 -269q0 -147 34 -266t98.5 -202 t158.5 -128t215 -45q33 0 87 6t115.5 31.5t121 77t104.5 141.5l51 -15l8 -18l-67 -256q-33 -16 -85 -28.5t-110.5 -22.5t-117 -15.5t-103.5 -5.5q-172 0 -320.5 46t-258 139.5t-172 233.5t-62.5 327z" />
<glyph unicode="D" horiz-adv-x="1626" d="M63 0v86q104 0 143.5 37t39.5 108v971q0 72 -39 109t-144 37v86q98 0 197.5 2t193 3t176.5 3t148 2q168 0 315.5 -46t256 -138.5t171 -228.5t62.5 -316q0 -178 -62.5 -314.5t-171 -227.5t-256 -137t-317.5 -46q-63 0 -146 2t-176.5 3t-192.5 3t-198 2zM520 231 q0 -72 37 -108.5t139 -36.5h80q121 0 215 45t158.5 128t98.5 198.5t34 257.5q0 141 -32.5 258t-97.5 199.5t-159 129t-215 46.5h-102q-92 -2 -124 -41t-32 -105v-971z" />
<glyph unicode="E" horiz-adv-x="1355" d="M63 0v86q104 0 143.5 37t39.5 108v971q0 72 -39 109t-144 37v86h1133l27 -19l-72 -313l-16 -10h-43q-14 135 -83 195.5t-198 60.5h-115q-102 0 -139 -38t-37 -108v-434h271q76 0 113.5 43t37.5 172h86v-494l-70 -8l-16 8q0 109 -38 148t-113 39h-271v-445 q0 -70 34 -107.5t122 -37.5h198q35 0 84.5 10t101.5 38t103 78t90 132l41 -14l9 -19l-82 -311h-1158z" />
<glyph unicode="F" horiz-adv-x="1275" d="M63 0v86q104 0 143.5 37t39.5 108v971q0 72 -39 109t-144 37v86h1133l27 -19l-72 -313l-16 -10h-43q-14 135 -83 195.5t-198 60.5h-115q-102 0 -139 -38t-37 -108v-434h271q76 0 113.5 43t37.5 172h86v-494l-70 -8l-16 8q0 109 -38 148t-113 39h-271v-445 q0 -35 9.5 -61.5t35 -45t72.5 -28.5t123 -10l8 -16l-8 -70h-697z" />
<glyph unicode="G" horiz-adv-x="1523" d="M43 715q0 186 62.5 327.5t171 234.5t256 140t317.5 47q33 0 78 -4t90 -10t85 -10t66 -4q43 0 70 8t41 18l27 -18l-72 -326l-14 -10h-43q-8 66 -41 114t-79 79.5t-100.5 47t-107.5 15.5q-121 0 -215 -46t-158.5 -130t-97.5 -204t-33 -269q0 -147 34 -266t98.5 -202 t158.5 -128t215 -45q20 0 49 2t64.5 8t74.5 19.5t78 35.5v226q0 37 -9 64.5t-32.5 45t-64.5 26.5t-107 9v86h600l8 -70l-8 -16q-98 0 -132 -36t-34 -109v-297q-33 -16 -83 -33t-112.5 -32t-135 -24.5t-152.5 -9.5q-172 0 -320.5 46t-258 139.5t-172 233.5t-62.5 327z" />
<glyph unicode="H" horiz-adv-x="1759" d="M63 0v86q104 0 143.5 37t39.5 108v971q0 72 -39 109t-144 37v86h654l8 -70l-8 -16q-119 0 -158 -38t-39 -108v-428h697v428q0 72 -39 109t-144 37v86h654l8 -70l-8 -16q-119 0 -158 -38t-39 -108v-971q0 -35 8 -62.5t30.5 -46t60.5 -27.5t98 -9l8 -16l-8 -70h-654v86 q104 0 143.5 37t39.5 108v439h-697v-439q0 -35 8.5 -62.5t31 -46t60 -27.5t97.5 -9l8 -16l-8 -70h-654z" />
<glyph unicode="I" horiz-adv-x="778" d="M63 0v86q104 0 143.5 37t39.5 108v971q0 72 -39 109t-144 37v86h644l8 -70l-8 -16q-111 0 -149 -37t-38 -109v-971q0 -72 38 -108.5t149 -36.5l8 -16l-8 -70h-644z" />
<glyph unicode="J" horiz-adv-x="782" d="M-240 -307q0 37 15.5 63.5t39 45t53.5 26.5t58 8l15 -12l57 -254l14 -10q117 0 177.5 58t60.5 151v1433q0 72 -40 109t-153 37v86h654l8 -70l-8 -16q-111 0 -149 -37t-38 -109v-1317q0 -102 -44 -179t-112.5 -127t-154.5 -75.5t-170 -25.5q-57 0 -108.5 13t-90.5 41 t-61.5 68t-22.5 93z" />
<glyph unicode="K" horiz-adv-x="1646" d="M63 0v86q104 0 143.5 37t39.5 108v971q0 72 -39 109t-144 37v86h654l8 -70l-8 -16q-119 0 -158 -38t-39 -108v-444h88l582 557l-170 39v80h534v-80l-192 -39l-533 -484l498 -641q27 -35 70 -49t71 -14q29 0 67 6t67 17l14 -21l-14 -51q-47 -45 -121 -77t-181 -32 q-98 0 -165.5 33t-110.5 92l-375 516q-18 25 -41.5 40.5t-87.5 15.5v-435q0 -35 8.5 -62.5t31 -46t60 -27.5t97.5 -9l8 -16l-8 -70h-654z" />
<glyph unicode="L" horiz-adv-x="1329" d="M63 0v86q104 0 143.5 37t39.5 108v971q0 72 -39 109t-144 37v86h654l8 -70l-8 -16q-119 0 -158 -38t-39 -108v-971q0 -68 32 -106.5t124 -38.5h178q35 0 83 10t100.5 38t102.5 78t87 132l41 -14l8 -19l-82 -311h-1131z" />
<glyph unicode="M" horiz-adv-x="2091" d="M68 0v86q104 0 141 39t43 111l80 976q-2 61 -40 98.5t-142 37.5v86h518l389 -1012l375 1012h507l9 -70l-9 -16q-111 0 -149.5 -38t-40.5 -112l82 -962q2 -35 11 -63t29.5 -47.5t55.5 -29.5t88 -10l8 -16l-8 -70h-659v86q123 0 165 39q36 33 36 91q0 10 -1 20l-79 976 l-476 -1212h-49l-499 1214l-80 -978q-1 -8 -1 -16q0 -60 40 -95q45 -39 168 -39l8 -16l-8 -70h-512z" />
<glyph unicode="N" horiz-adv-x="1705" d="M63 0v86q104 0 143.5 37t39.5 108v979q0 63 -39 100.5t-144 37.5v86h461l809 -1000v768q0 35 -9 62.5t-33.5 46t-67.5 28t-109 9.5v86h531l8 -70l-8 -16q-111 0 -149 -37t-38 -109v-1202h-108l-981 1186v-955q0 -35 9 -62.5t33.5 -46t68.5 -27.5t114 -9l8 -16l-8 -70 h-531z" />
<glyph unicode="O" horiz-adv-x="1568" d="M43 713q0 170 54.5 308t152.5 236.5t234.5 152.5t299.5 54q164 0 300.5 -54t234.5 -152.5t152.5 -236.5t54.5 -308q0 -168 -54.5 -305.5t-152.5 -234.5t-234.5 -150.5t-300.5 -53.5t-300 53.5t-234 150.5t-152.5 234.5t-54.5 305.5zM350 713q0 -137 28 -255t82 -205 t134.5 -136t189.5 -49q106 0 188.5 49t137.5 136t83 204.5t28 257.5q0 137 -28 256t-83 207t-137 138t-189 50q-109 0 -189.5 -50t-134.5 -138t-82 -208t-28 -257z" />
<glyph unicode="P" horiz-adv-x="1228" d="M63 0v86q104 0 143.5 37t39.5 108v971q0 72 -39 109t-144 37v86h650q156 0 249 -39t143 -98.5t65.5 -134.5t15.5 -144q0 -59 -26.5 -130t-90 -133.5t-169 -104.5t-265.5 -42h-57.5t-57.5 4v-381q0 -35 9.5 -62.5t34 -46t68.5 -27.5t116 -9l8 -16l-8 -70h-685zM520 705 q14 -2 33.5 -2.5t34.5 -0.5q86 0 149.5 29t103.5 79t59.5 117.5t19.5 145.5q0 53 -14.5 103.5t-44.5 88.5t-74 60.5t-103 22.5q-96 0 -130 -39t-34 -107v-497z" />
<glyph unicode="Q" horiz-adv-x="1593" d="M43 715q0 170 54.5 308t152.5 236.5t234.5 151.5t299.5 53q164 0 300.5 -53t234.5 -151.5t152.5 -236.5t54.5 -308q0 -141 -37 -259t-104.5 -210t-165 -155.5t-215.5 -94.5v-8q80 -18 153.5 -48t143 -57.5t138 -47t140.5 -19.5q63 0 105 7t72 20.5t51.5 30.5t43.5 38 l9 -8v-72q-12 -33 -34 -77t-59.5 -85t-94 -69.5t-134.5 -28.5q-82 0 -151.5 29.5t-133 73.5t-121 95.5t-113.5 95.5t-114.5 73.5t-120.5 29.5q-164 2 -300 55.5t-234 150.5t-152.5 234.5t-54.5 305.5zM350 715q0 -137 28 -256t82 -206t134.5 -136t189.5 -49q106 0 188.5 49 t137.5 137t83 206t28 257q0 137 -28 256t-83 206t-137 137t-189 50q-109 0 -189.5 -50t-134.5 -137t-82 -207t-28 -257z" />
<glyph unicode="R" horiz-adv-x="1497" d="M63 0v86q104 0 143.5 37t39.5 108v971q0 72 -39 109t-144 37v86h652q150 0 242 -36t143 -92.5t68.5 -127t17.5 -140.5q0 -47 -16.5 -101t-56.5 -105.5t-105.5 -91.5t-163.5 -60v-14q92 -10 154.5 -84t99.5 -170q23 -59 47 -112.5t53 -94.5t63.5 -64.5t77.5 -23.5 q35 0 59.5 6t53.5 16l14 -20l-14 -45q-47 -45 -107.5 -75t-148.5 -30q-80 0 -133 23.5t-91 64.5t-62.5 96.5t-45.5 118.5q-29 86 -66.5 171t-107.5 145q-35 29 -76 46t-94 17v-420q0 -35 8.5 -62.5t31 -46t60 -27.5t97.5 -9l8 -16l-8 -70h-654zM520 745q14 -2 33.5 -2h34.5 q88 0 150.5 27t102.5 73t59.5 108.5t19.5 135.5q0 51 -14.5 98.5t-44.5 83.5t-74 57.5t-103 21.5q-96 0 -130 -39t-34 -107v-457z" />
<glyph unicode="S" horiz-adv-x="1060" d="M33 389l20 19l99 6q0 -82 31.5 -145.5t82.5 -107.5t115.5 -66.5t132.5 -22.5q43 0 87 12t81 40t60.5 73t23.5 110q0 84 -51 138.5t-129 98.5t-168 86t-168 99t-129 140t-51 208q0 96 41 169t105.5 121t144 72.5t159.5 24.5q33 0 79 -4t89 -10t77 -10t46 -4q29 0 69 3 t66 23l27 -18l-72 -326l-14 -10h-47q0 45 -20.5 90t-59.5 82t-96.5 60.5t-131.5 23.5q-35 0 -72.5 -9t-69.5 -33t-53.5 -62.5t-21.5 -98.5q0 -90 53.5 -147.5t132.5 -101.5t171 -85t171 -97t132 -137t53 -204q0 -96 -43 -173t-113.5 -132t-159.5 -85t-180 -30q-25 0 -72.5 2 t-111 11.5t-138.5 31t-155 62.5z" />
<glyph unicode="T" horiz-adv-x="1363" d="M25 1102l49 332h1218l47 -332l-8 -19l-45 -14q-33 82 -85 135t-114.5 82t-132 40t-135.5 11v-1104q0 -72 40 -108.5t161 -36.5l8 -16l-8 -72h-672v88q115 0 156 37t41 108v1104q-66 0 -134.5 -11t-132 -40t-115.5 -82t-85 -135l-45 14z" />
<glyph unicode="U" horiz-adv-x="1681" d="M57 1348v86h668l8 -70l-8 -16q-63 0 -103 -9.5t-63.5 -28t-32 -46t-8.5 -62.5v-651q0 -143 28.5 -232.5t81 -139.5t123 -67.5t154.5 -17.5t158 22.5t128 76t86 140.5t32 218v651q0 72 -41 109t-146 37v86h494l8 -70l-8 -16q-111 0 -148.5 -37t-37.5 -109v-633 q0 -188 -54.5 -306t-134.5 -183.5t-172 -88t-166 -22.5q-129 0 -248.5 23.5t-212 88t-147.5 180.5t-55 300v641q0 72 -39 109t-144 37z" />
<glyph unicode="V" horiz-adv-x="1488" d="M14 1366v68h672v-64l-131 -37q-59 -16 -59 -53q0 -16 5 -33.5t11 -36.5l328 -831l319 838q4 14 8 31.5t4 27.5q0 23 -9 38t-36 21l-141 35v64h490v-62l-76 -29q-49 -18 -69.5 -50.5t-35.5 -67.5l-508 -1225h-51l-528 1221q-14 33 -38 65.5t-75 52.5z" />
<glyph unicode="W" horiz-adv-x="2236" d="M14 1366v68h672v-64l-131 -37q-59 -16 -59 -53q0 -16 5 -33.5t11 -36.5l287 -827l260 780l-23 58q-14 33 -37.5 65.5t-74.5 52.5l-80 27v68h672v-64l-132 -37q-59 -16 -59 -53q0 -16 5 -33.5t11 -36.5l287 -827l279 834q4 14 8 31.5t4 27.5q0 23 -9 38t-36 21l-141 35v64 h489v-62l-76 -29q-49 -18 -69.5 -50.5t-34.5 -67.5l-467 -1225h-51l-400 997l-379 -997h-51l-487 1221q-14 33 -38 65.5t-75 52.5z" />
<glyph unicode="X" horiz-adv-x="1529" d="M14 0v68q66 18 112 46.5t93 80.5l418 467l-418 565q-20 27 -39.5 51.5t-42 42.5t-51.5 31.5t-66 19.5v62h711v-64l-127 -37q-29 -10 -46 -25.5t-17 -45.5q0 -27 16 -52l260 -350l320 357q10 12 16 25t6 32q0 47 -51 61l-137 35v64h534v-62l-73 -29q-29 -12 -59 -34.5 t-62 -59.5l-428 -477l415 -559q43 -57 95.5 -90t122.5 -55v-68h-736v63l135 37q35 10 49.5 28.5t14.5 43.5q0 18 -4 29.5t-12 21.5l-261 350l-319 -356q-10 -10 -16.5 -24.5t-6.5 -34.5q0 -45 52 -60l137 -35v-63h-535z" />
<glyph unicode="Y" horiz-adv-x="1411" d="M14 1366v68h666v-64l-127 -37q-66 -20 -66 -67q0 -12 5.5 -26.5t13.5 -29.5l280 -530l297 537q10 20 14.5 33.5t4.5 23.5q0 23 -10.5 38t-38.5 23l-138 35v64h482v-62l-76 -29q-39 -16 -60.5 -52t-43.5 -66l-379 -631v-363q0 -35 8 -62.5t30.5 -46t60.5 -27.5t97 -9 l8 -16l-8 -70h-663v86q113 0 152.5 37t39.5 108v349l-356 641q-18 35 -45 69.5t-68 48.5z" />
<glyph unicode="Z" horiz-adv-x="1353" d="M70 0v78l819 1251l-4 21l-428 -21q-59 -4 -104.5 -32.5t-76 -74.5t-47 -105.5t-16.5 -123.5l-25 -16l-71 14l22 443h1100v-78l-819 -1256l6 -16l504 22q121 6 186.5 102.5t65.5 252.5l24 18l78 -18l-20 -461h-1194z" />
<glyph unicode="[" horiz-adv-x="636" d="M113 -483v2035h393l8 -79l-8 -17h-217v-1843h217l8 -16l-8 -80h-393z" />
<glyph unicode="\" horiz-adv-x="768" d="M41 1552h139l547 -2035h-139z" />
<glyph unicode="]" horiz-adv-x="636" d="M123 -403l8 16h217v1843h-217l-8 17l8 79h393v-2035h-393z" />
<glyph unicode="^" horiz-adv-x="1177" d="M113 473l395 905h162l395 -905h-162l-315 719l-314 -719h-161z" />
<glyph unicode="_" horiz-adv-x="1429" d="M113 -96h1204v-162h-1204v162z" />
<glyph unicode="`" horiz-adv-x="665" d="M113 1524q27 63 71 94q47 35 111 35l258 -473l-31 -35l-41 -19z" />
<glyph unicode="a" horiz-adv-x="1028" d="M37 238q0 106 61.5 165.5t147.5 89t177 37t150 7.5v221q0 92 -61 148.5t-184 56.5l-15 -11l-63 -252l-14 -12q-29 0 -57.5 8.5t-53.5 25.5t-40 43t-15 62q0 51 33.5 92.5t92 70t138.5 44t172 15.5q166 0 245.5 -77t79.5 -218v-496q0 -88 46.5 -124t126.5 -36l12 -12 l-15 -39q-51 -39 -111.5 -55.5t-113.5 -16.5q-61 0 -100 18.5t-61.5 48.5t-32 64.5t-9.5 67.5h-8q-2 -12 -15 -45t-44 -66.5t-80 -60.5t-123 -27q-123 0 -194.5 69t-71.5 194zM295 272q0 -76 33.5 -107.5t85.5 -31.5q20 0 43.5 8.5t46 24.5t41 44t28.5 66v201 q-29 0 -75.5 -8t-92 -31.5t-78 -63.5t-32.5 -102z" />
<glyph unicode="b" horiz-adv-x="1226" d="M10 1432v57l418 119l16 -15v-739h9q35 61 78.5 99t88 59.5t83 29t65.5 7.5q119 0 200 -44t132 -116t73.5 -163t22.5 -185q0 -117 -33 -220.5t-96 -180.5t-156.5 -121t-212.5 -44q-55 0 -102 9.5t-88 19.5t-79 19.5t-77 9.5q-45 0 -89 -12.5t-83 -45.5l-33 19 q18 53 26.5 119.5t8.5 126.5v1155zM444 240q16 -49 44 -84t61 -56.5t64.5 -31t56.5 -9.5q61 0 110 34t83 91.5t51.5 134t17.5 162.5q0 76 -16.5 144.5t-51.5 120t-89 82t-128 30.5q-23 0 -50.5 -6t-55 -18.5t-53 -31t-44.5 -44.5v-518z" />
<glyph unicode="c" d="M31 498q0 147 49 251.5t122.5 171t161 97.5t164.5 31q102 0 176 -25t122 -62.5t71 -82.5t23 -88q0 -80 -44.5 -124t-121.5 -44l-19 12l-49 264l-4 6q-29 31 -62.5 45.5t-91.5 14.5q-37 0 -77.5 -21.5t-76.5 -72t-59.5 -130t-23.5 -196.5q0 -109 30.5 -180.5t76.5 -114.5 t99.5 -60.5t100.5 -17.5q98 0 177 28.5t134 75.5l15 -2l26 -30q-61 -129 -171.5 -199t-252.5 -70q-96 0 -186 30t-158.5 93.5t-109.5 161.5t-41 238z" />
<glyph unicode="d" horiz-adv-x="1249" d="M31 485q0 117 32.5 219.5t95 179.5t156 121t213.5 44q14 0 45 -1t67 -9.5t74 -25t68 -46.5v428l-172 37v57l418 119l16 -15v-1407l173 -36v-58l-418 -119l-17 15v178h-8q-63 -111 -143 -151t-172 -40q-115 0 -197 44t-133 116t-74.5 163t-23.5 187zM295 541 q0 -76 17.5 -144.5t52 -120t89 -81t128.5 -29.5q59 0 112.5 22.5t87.5 79.5v518q-29 100 -89 138.5t-136 38.5q-61 0 -110.5 -33t-83 -90.5t-51 -134t-17.5 -164.5z" />
<glyph unicode="e" d="M31 498q0 147 49 251.5t124 171t162 97.5t162 31q111 0 190 -30t129 -82t74.5 -123t24.5 -155h-647q-4 -29 -6 -54t-2 -60q0 -109 30.5 -180.5t76.5 -114.5t99.5 -60.5t100.5 -17.5q98 0 177 29.5t134 74.5l15 -2l26 -30q-61 -129 -171.5 -199t-252.5 -70q-96 0 -185 30 t-158.5 93.5t-110.5 161.5t-41 238zM315 750h392q0 115 -41 165t-134 50q-29 0 -61.5 -11.5t-63 -38t-55 -67.5t-37.5 -98z" />
<glyph unicode="f" horiz-adv-x="761" d="M33 0v80q98 0 135 38t37 113v684h-172v68l172 41v186q0 102 43 179t111.5 127.5t151.5 76t163 25.5q57 0 108.5 -14.5t90 -41t61 -67.5t22.5 -92q0 -37 -15 -63.5t-38.5 -45t-53.5 -26.5t-58 -8l-15 12l-57 254l-14 10q-121 0 -179.5 -58.5t-58.5 -150.5v-303h344 l-25 -92l-22 -17h-297v-684q0 -37 9 -65.5t36 -48t75 -28.5t128 -9l8 -17l-8 -63h-682z" />
<glyph unicode="g" horiz-adv-x="1105" d="M8 -332q0 47 17.5 81t48 60.5t71.5 48t86 44.5v10q-63 35 -103 87t-40 130q0 41 16.5 71.5t45 58.5t66.5 55.5t79 64.5v10q-88 37 -141.5 111.5t-53.5 189.5q0 92 39 160t101.5 112t139.5 65.5t152 21.5q72 0 142.5 -17.5t130.5 -54.5l280 92l13 -14l-21 -164l-186 22 l-4 -6q37 -41 57.5 -96t20.5 -121q0 -90 -37 -157.5t-97.5 -111.5t-138.5 -65.5t-160 -21.5q-39 0 -88 7t-94 24q-31 -25 -45 -58t-14 -61q0 -55 57.5 -84t151.5 -29q92 0 190 -7t178 -39t132.5 -97.5t52.5 -179.5q0 -82 -42 -157t-116 -131.5t-175.5 -90t-221.5 -33.5 q-90 0 -177.5 16.5t-157 50t-112.5 85t-43 118.5zM244 -274q0 -59 34.5 -96.5t85 -60t106.5 -30.5t97 -8q98 0 165 17.5t107 43t57 56t17 59.5q0 51 -33.5 83t-90 49.5t-132 22.5t-157.5 5q-49 0 -102.5 5t-100.5 15q-16 -23 -34.5 -60.5t-18.5 -100.5zM346 690 q0 -147 56 -208.5t130 -61.5q37 0 70 14.5t59.5 47t42 83.5t15.5 125t-15.5 126t-42 85t-59.5 47.5t-70 14.5t-70.5 -14.5t-59 -47.5t-41 -85t-15.5 -126z" />
<glyph unicode="h" horiz-adv-x="1355" d="M33 0v80q98 0 135 38t37 113v1164l-172 37v57l418 119l16 -15v-739h8q53 98 138 146.5t198 48.5q166 0 250 -95.5t84 -253.5v-469q0 -76 39 -113.5t129 -37.5l10 -17l-10 -63h-578v80q86 0 117 38t31 113v426q0 104 -42 171t-151 67q-12 0 -38.5 -4t-59.5 -18.5 t-65.5 -41t-59.5 -71.5v-529q0 -76 37 -113.5t141 -37.5l8 -17l-8 -63h-612z" />
<glyph unicode="i" horiz-adv-x="684" d="M33 0v80q98 0 135 38t37 113v594l-172 37v68l418 119l16 -15v-803q0 -76 37 -113.5t139 -37.5l8 -17l-8 -63h-610zM154 1360q0 37 14 68.5t38.5 55t56.5 38t67 14.5q37 0 68.5 -14.5t55 -38t38 -55t14.5 -68.5t-14.5 -68.5t-38 -56.5t-55 -38t-68.5 -13q-35 0 -67 13 t-56.5 38t-38.5 56.5t-14 68.5z" />
<glyph unicode="j" horiz-adv-x="673" d="M-287 -387q0 37 15.5 63.5t39 45t53 26.5t58.5 8l15 -12l57 -258l14 -10q117 0 177.5 58t60.5 153v1138l-172 37v68l418 119l16 -15v-1229q0 -102 -43 -179t-111.5 -127t-151.5 -75.5t-163 -25.5q-57 0 -108.5 14.5t-90.5 41t-61.5 66.5t-22.5 93zM154 1360q0 37 14 68.5 t38.5 55t56.5 38t67 14.5q37 0 68.5 -14.5t55 -38t38 -55t14.5 -68.5t-14.5 -68.5t-38 -56.5t-55 -38t-68.5 -13q-35 0 -67 13t-56.5 38t-38.5 56.5t-14 68.5z" />
<glyph unicode="k" horiz-adv-x="1288" d="M33 0v80q98 0 135 38t37 113v1164l-172 37v57l418 119l16 -15v-1050h53l377 381l-180 32v68h497v-68l-149 -32l-330 -291v-12l379 -467q37 -39 66.5 -46.5t87.5 -7.5l10 -14l-10 -35q-35 -33 -83 -54.5t-132 -21.5q-57 0 -111.5 22.5t-89.5 68.5l-281 380 q-14 16 -37.5 26.5t-66.5 12.5v-254q0 -76 36 -113.5t136 -37.5l8 -17l-8 -63h-606z" />
<glyph unicode="l" horiz-adv-x="686" d="M33 0v80q98 0 135 38t37 113v1164l-172 37v57l418 119l16 -15v-1362q0 -76 37 -113.5t141 -37.5l8 -17l-8 -63h-612z" />
<glyph unicode="m" horiz-adv-x="2017" d="M33 0v80q98 0 135 38t37 113v594l-172 37v68l418 119l16 -15v-194h8q53 104 139 156.5t189 52.5q123 0 199.5 -55.5t109.5 -147.5q55 96 143 149.5t218 53.5q166 0 249.5 -95.5t83.5 -253.5v-469q0 -76 39 -113.5t129 -37.5l11 -17l-11 -63h-577v80q86 0 116.5 38 t30.5 113v426q0 104 -42 171t-150 67q-16 0 -42 -4t-56.5 -16.5t-63.5 -36t-60 -62.5q6 -37 7 -76v-469q0 -76 40 -113.5t136 -37.5l10 -17l-10 -63h-586v80q86 0 116.5 38t30.5 113v426q0 104 -41.5 171t-150.5 67q-10 0 -34.5 -4t-56.5 -19.5t-64.5 -45t-59.5 -78.5v-517 q0 -76 37 -113.5t141 -37.5l8 -17l-8 -63h-612z" />
<glyph unicode="n" horiz-adv-x="1351" d="M33 0v80q98 0 135 38t37 113v594l-172 37v68l418 119l16 -15v-194h8q109 209 332 209q166 0 250 -95.5t84 -253.5v-469q0 -76 39 -113.5t129 -37.5l10 -17l-10 -63h-578v80q86 0 117 38t31 113v426q0 104 -42 171t-151 67q-10 0 -35.5 -4t-57.5 -19.5t-65.5 -45 t-60.5 -78.5v-517q0 -76 36 -113.5t134 -37.5l8 -17l-8 -63h-604z" />
<glyph unicode="o" horiz-adv-x="1142" d="M31 512q0 113 34.5 211t102.5 171t169 114t234 41t234.5 -41t169 -114t102.5 -171t35 -211q0 -115 -35 -213t-102.5 -170t-168.5 -113t-235 -41q-133 0 -234 41t-169 113t-102.5 170t-34.5 213zM322 512q2 -221 67 -335t182 -114t183.5 114t66.5 335q0 217 -66.5 333 t-183.5 116t-183 -116t-66 -333z" />
<glyph unicode="p" horiz-adv-x="1249" d="M33 862v68l418 119l16 -15v-190h8q57 121 140 163t176 42q119 0 199.5 -44t132 -116t74 -163t22.5 -185q0 -117 -33 -220.5t-96.5 -180.5t-156.5 -121t-212 -44q-10 0 -39 1t-65.5 9.5t-77.5 25t-72 46.5v-415q0 -39 8 -68t34 -48.5t73 -28.5t125 -9l8 -16l-8 -64h-654 v80q82 0 117 36t35 116v1185zM467 240q29 -100 89 -139.5t136 -39.5q61 0 109.5 34t82.5 91.5t52 135t18 163.5q0 76 -17 143.5t-52 119t-89.5 81t-127.5 29.5q-59 0 -112.5 -26.5t-88.5 -83.5v-508z" />
<glyph unicode="q" horiz-adv-x="1245" d="M31 485q0 117 32.5 219.5t96 179.5t156 121t212.5 44q55 0 101.5 -9.5t88.5 -19.5t80 -19.5t76 -9.5q45 0 89.5 12.5t83.5 45.5l32 -19q-18 -53 -26.5 -119.5t-8.5 -126.5v-1144q0 -78 36 -115t128 -37l9 -16l-9 -64h-665v80q139 0 189 33t50 110v533h-8q-35 -59 -79 -96 t-88 -57.5t-83 -28t-65 -7.5q-119 0 -201 44t-132 116t-72.5 163t-22.5 187zM295 545q0 -78 16.5 -146.5t52 -121t89 -82t127.5 -29.5q18 0 45.5 4t57.5 15.5t56.5 31t42.5 49.5v516q-16 49 -44.5 84t-60.5 56.5t-63.5 31t-56.5 9.5q-61 0 -110.5 -33t-83 -89.5t-51 -133 t-17.5 -162.5z" />
<glyph unicode="r" horiz-adv-x="968" d="M33 0v80q98 0 135 38t37 113v594l-172 37v68l418 117l16 -13l-14 -270h14q16 51 46 102.5t69 91t88 65.5t104 26q92 0 138 -50.5t46 -115.5q0 -35 -12 -71t-36.5 -63.5t-59.5 -46t-80 -18.5l-12 8l-62 154l-12 10q-27 0 -57.5 -13.5t-60 -36t-55.5 -52t-44 -62.5v-461 q0 -37 8 -65.5t35 -48t73 -28.5t124 -9l8 -17l-8 -63h-674z" />
<glyph unicode="s" horiz-adv-x="862" d="M39 309l16 15l84 8q4 -53 26.5 -101.5t58.5 -84t81 -57t94 -21.5q25 0 53.5 7t54 25.5t42 51t16.5 81.5q0 53 -35.5 90t-89 67t-117 59.5t-116.5 71.5t-89 99.5t-36 145.5q0 70 30.5 123t82 89t120 53.5t146.5 17.5q72 0 119 -9.5t88 -9.5q20 0 43.5 3t52.5 16l20 -11 l-28 -288l-21 -11h-59q0 43 -12.5 83t-37 72t-63.5 51.5t-94 19.5q-18 0 -42 -6.5t-45.5 -22.5t-36.5 -44t-15 -69q0 -59 36.5 -99t91 -70.5t119 -60.5t119 -70t91 -96t36.5 -142q0 -70 -31.5 -126.5t-85 -97.5t-124 -63.5t-148.5 -22.5q-20 0 -59 1t-90.5 8.5t-109.5 21.5 t-116 41z" />
<glyph unicode="t" horiz-adv-x="813" d="M12 889v57l398 328h47v-260h344l-23 -109l-20 -16h-301v-539q0 -80 15 -127t41 -70.5t58.5 -29.5t65.5 -6q37 0 79 9t72 24l13 -13l-10 -51q-59 -53 -134 -82t-165 -29q-59 0 -113.5 11.5t-95.5 48.5t-64.5 104.5t-23.5 177.5v572h-183z" />
<glyph unicode="u" horiz-adv-x="1341" d="M10 891l8 72l408 61h33v-657q0 -106 42 -172t150 -66q12 0 39 4t58.5 19.5t65.5 45t60 78.5v467q0 76 -36.5 103.5t-139.5 27.5l-8 17l8 70l404 63h35v-836l172 -34v-60l-418 -119l-17 15v180h-8q-106 -195 -336 -195q-166 0 -249.5 95.5t-83.5 253.5v419q0 76 -40 103.5 t-137 27.5z" />
<glyph unicode="v" horiz-adv-x="1185" d="M10 956v68h578v-68l-148 -61l228 -612h12l219 612l-147 61v68h424v-68l-152 -61l-371 -897h-135l-356 897z" />
<glyph unicode="w" horiz-adv-x="1869" d="M10 956v68h576v-68l-146 -61l217 -612h13l192 557l-22 55l-162 61v68h610v-68l-147 -61l219 -612h12l211 612l-147 61v68h424v-68l-152 -61l-360 -897h-140l-280 711l-283 -711h-137l-346 897z" />
<glyph unicode="x" horiz-adv-x="1136" d="M10 0v68l156 61l293 350l-287 416l-160 61v68h570v-68l-129 -61l137 -219l20 -39l207 258l-129 61v68h436v-68l-166 -61l-296 -328l307 -438l157 -61v-68h-571v68l131 61l-156 242l-18 35l-199 -277l136 -61v-68h-439z" />
<glyph unicode="y" horiz-adv-x="1175" d="M-31 -414q0 74 49.5 114t114.5 40l14 -12l80 -222l13 -10q61 0 104 49t72 129l116 326l-376 895l-154 61v68h576v-68l-146 -61l225 -596h13l213 596l-146 61v68h428v-68l-153 -61l-514 -1266q-29 -72 -68 -116.5t-81 -70.5t-86 -35t-83 -9q-106 0 -158.5 55t-52.5 133z " />
<glyph unicode="z" horiz-adv-x="956" d="M39 0v55l551 887l-4 14l-269 -16q-39 -2 -70.5 -22.5t-53 -54.5t-34 -79t-12.5 -94l-18 -12l-57 10l16 336h801v-55l-541 -887l4 -12l312 14q82 4 128 73.5t46 180.5l18 12l62 -12l-15 -338h-864z" />
<glyph unicode="{" horiz-adv-x="917" d="M113 489v93q84 0 137 14t84 45t42 77t11 109q0 51 -7 110.5t-14.5 121t-14.5 122t-7 113.5q0 123 101.5 191.5t342.5 68.5l7 -67q-53 0 -98.5 -8.5t-79 -27.5t-53 -52t-19.5 -82q0 -68 3 -125t8 -111.5t8 -111t3 -123.5q0 -61 -20.5 -115.5t-60.5 -96.5t-100 -66.5 t-138 -24.5v-15q78 0 138 -24.5t100 -66.5t60.5 -96t20.5 -116q0 -68 -3 -124t-8 -110t-8 -111.5t-3 -125.5q0 -49 19.5 -81.5t53 -52t78.5 -28t99 -8.5l-7 -67q-242 0 -343 68.5t-101 191.5q0 53 7 113.5t14.5 122t14.5 121t7 110.5q0 63 -11 109t-42 77t-84 45t-137 14z " />
<glyph unicode="|" horiz-adv-x="352" d="M113 -545v2159h127v-2159h-127z" />
<glyph unicode="}" horiz-adv-x="917" d="M123 -416q51 0 97 8.5t80 28t53.5 52t19.5 81.5q0 68 -3 125.5t-8.5 111.5t-8.5 110.5t-3 123.5q0 61 20.5 115.5t60.5 96.5t100.5 66.5t138.5 24.5v15q-78 0 -138.5 24.5t-100.5 66.5t-60.5 96t-20.5 116q0 68 3 124t8.5 110.5t8.5 111.5t3 125q0 49 -19.5 82t-53.5 52 t-80 27.5t-97 8.5l6 67q242 0 343 -68.5t101 -191.5q0 -53 -7 -113.5t-14 -122t-14.5 -120.5t-7.5 -111q0 -63 11.5 -109t42 -77t84 -45t137.5 -14v-93q-84 0 -137.5 -14t-84 -45t-42 -77t-11.5 -109q0 -51 7.5 -110.5t14.5 -121t14 -122t7 -113.5q0 -123 -101 -191.5 t-343 -68.5z" />
<glyph unicode="~" horiz-adv-x="1230" d="M113 477q33 68 71.5 109t76.5 63.5t74 29.5t64 7q55 0 110.5 -22.5t111 -48t110.5 -48t109 -22.5q53 0 95 39t73 108l110 -67q-35 -111 -113.5 -179.5t-177.5 -68.5q-66 0 -120 22.5t-104 49t-101 49t-109 22.5q-61 0 -100 -26.5t-78 -100.5z" />
<glyph unicode="&#xa1;" horiz-adv-x="571" d="M113 967q0 70 49 119t119 49q68 0 118 -49t50 -119q0 -72 -50.5 -120t-117.5 -48q-70 0 -119 48t-49 120zM131 -451l109 1104l86 -12l108 -1092q0 -63 -45 -107t-106 -44q-63 0 -107.5 44t-44.5 107z" />
<glyph unicode="&#xa2;" d="M31 705q0 135 42 233t106.5 165.5t144 103.5t153.5 44v193h103v-191q88 -6 152.5 -32.5t105.5 -63.5t61.5 -79t20.5 -81q0 -80 -44.5 -124t-121.5 -44l-19 13l-49 264l-4 6q-23 23 -45.5 37t-56.5 18v-788h18q98 0 177 28.5t134 75.5l15 -2l26 -30 q-55 -117 -151.5 -185.5t-218.5 -81.5v-184h-103v184q-90 6 -171 40t-142.5 97.5t-97 158.5t-35.5 225zM291 752q0 -76 15.5 -134.5t42 -100.5t59 -69.5t69.5 -44.5v758q-33 -12 -66.5 -41.5t-60 -79t-43 -121t-16.5 -167.5z" />
<glyph unicode="&#xa3;" horiz-adv-x="1212" d="M82 0v98q82 0 130 17.5t72.5 44t32 60.5t7.5 69q0 100 -4.5 188t-8.5 172h-229v56l221 43q-6 102 -12 197t-6 196q0 102 44 179t112.5 127t155.5 75.5t173 25.5q123 0 203 -55t80 -160q0 -37 -15.5 -63.5t-39 -45t-53.5 -26.5t-58 -8l-15 12l-57 254l-14 10 q-104 0 -172 -58t-68 -151q0 -125 9.5 -255t9.5 -252h467l-21 -101h-446q0 -61 -10.5 -125.5t-30 -124t-48 -111.5t-65.5 -91l4 -13h516q59 0 92 36t49 83l48 -14l6 -19l-51 -270h-1008z" />
<glyph unicode="&#xa4;" horiz-adv-x="1150" d="M113 1055l102 102l131 -149q49 33 106.5 51t122.5 18q63 0 122 -18.5t108 -50.5l131 149l102 -102l-141 -133q41 -53 64.5 -118t23.5 -136q0 -72 -24.5 -137.5t-65.5 -118.5l141 -133l-102 -103l-133 152q-102 -68 -226 -68q-61 0 -118.5 17.5t-104.5 48.5l-133 -150 l-102 103l141 133q-90 109 -90 256q0 143 86 252zM348 668q0 -123 64.5 -197t162.5 -74t164 74t66 197q0 125 -65.5 198.5t-164.5 73.5q-98 0 -162.5 -73.5t-64.5 -198.5z" />
<glyph unicode="&#xa5;" horiz-adv-x="1411" d="M14 1366v68h666v-64l-127 -37q-35 -10 -49.5 -26.5t-14.5 -34.5q0 -31 17 -62l280 -530l297 537q10 20 14.5 33.5t4.5 23.5q0 20 -10.5 36.5t-38.5 24.5l-138 35v64h482v-62l-76 -29q-39 -16 -60.5 -52t-43.5 -66l-379 -629h454l-20 -98h-434v-267q0 -35 8 -62.5 t30.5 -46t60.5 -27.5t97 -9l8 -16l-8 -70h-663v86q113 0 152.5 37t39.5 108v267h-444l20 98h414l-346 625q-18 35 -45 69.5t-68 48.5z" />
<glyph unicode="&#xa6;" horiz-adv-x="356" d="M113 307h131v-758h-131v758zM113 614v758h131v-758h-131z" />
<glyph unicode="&#xa7;" horiz-adv-x="1224" d="M72 434q0 63 20.5 122.5t56 110t85 88.5t106.5 62q-35 47 -54.5 105.5t-19.5 134.5q0 94 43 166.5t105.5 122t131 74t122.5 24.5q80 0 147.5 -12.5t115.5 -37t75.5 -62.5t27.5 -91q0 -61 -44 -100t-97 -39q-18 0 -41 7t-39 19q0 92 -35 152.5t-121 60.5q-31 0 -67.5 -9 t-67 -32.5t-52 -62.5t-21.5 -98q0 -82 52 -133.5t130 -92.5t170 -78.5t170 -92t130 -134.5t52 -200q0 -66 -20.5 -124.5t-57.5 -108.5t-86 -87.5t-104 -62.5q35 -47 54 -105.5t19 -134.5q0 -96 -43 -168t-105 -121t-132 -73.5t-121 -24.5q-80 0 -147.5 12t-115.5 37 t-76 62.5t-28 91.5q0 61 44.5 100t97.5 39q18 0 40.5 -7t39.5 -20q0 -92 34.5 -152.5t120.5 -60.5q31 0 68 9.5t67.5 32t52 62.5t21.5 99q0 80 -52 132t-130 93t-170 79t-170 92.5t-130 133t-52 201.5zM270 516q0 -53 28 -94t73 -73t103 -60.5t120.5 -58t123 -64.5 t109.5 -80q49 31 88 91.5t39 148.5q0 80 -59 132t-145 95t-182.5 88t-172.5 115q-49 -33 -87 -92.5t-38 -147.5z" />
<glyph unicode="&#xa8;" horiz-adv-x="942" d="M113 1290q0 61 45 106.5t106 45.5t106.5 -45t45.5 -107q0 -63 -45.5 -107t-106.5 -44t-106 44t-45 107zM526 1290q0 61 45 106.5t107 45.5q61 0 106 -45t45 -107q0 -63 -45 -107t-106 -44t-106.5 44t-45.5 107z" />
<glyph unicode="&#xa9;" horiz-adv-x="1548" d="M102 717q0 137 53.5 259t144.5 214t213 145.5t261 53.5t261 -53.5t213 -144.5t144.5 -213t53.5 -261q0 -137 -53.5 -259t-144.5 -214t-214 -145.5t-260 -53.5q-139 0 -261 53.5t-213 144.5t-144.5 213t-53.5 261zM182 717q0 -121 47 -228.5t128 -188.5t188.5 -128 t228.5 -47q125 0 233.5 45t188.5 125t125 188.5t45 233.5q0 121 -47 228.5t-128 188t-188.5 128t-228.5 47.5q-127 0 -234.5 -45t-187.5 -125t-125 -188.5t-45 -233.5zM356 705q0 98 35 173.5t95.5 127t141.5 77t175 25.5q18 0 42.5 -2t49.5 -5t46.5 -5t35.5 -2q25 0 40 4 t23 8l15 -10l-39 -193l-10 -6h-23q-4 37 -21.5 63.5t-44 44t-56.5 25.5t-58 8q-57 0 -104.5 -24.5t-80 -68.5t-50 -105.5t-17.5 -134.5q0 -147 67.5 -239.5t184.5 -92.5q18 0 49 4t65.5 18.5t68.5 43t58 77.5l25 -8l2 -8l-37 -156q-18 -10 -47 -17.5t-60.5 -12.5t-64.5 -8 t-59 -3q-94 0 -175 25.5t-141.5 76t-95.5 126t-35 174.5z" />
<glyph unicode="&#xaa;" horiz-adv-x="811" d="M102 623v90h607v-90h-607zM102 967q0 63 37 99t88.5 53.5t105.5 21.5t89 4v127q0 59 -37 85.5t-96 26.5l-8 -6l-35 -141l-8 -8q-49 0 -82 19.5t-33 66.5q0 61 73.5 95t186.5 34q115 0 163 -47t48 -133v-281q0 -47 27.5 -66.5t78.5 -19.5l7 -8l-9 -27q-57 -43 -155 -43 q-37 0 -59.5 11.5t-37 27.5t-19.5 35.5t-5 36.5h-8q0 -6 -7.5 -24.5t-24.5 -37t-47 -34t-73 -15.5q-74 0 -117 40t-43 108zM272 987q0 -35 20.5 -51t53.5 -16q14 0 38 13t38 52v121q-18 0 -44 -5t-49.5 -19.5t-40 -37t-16.5 -57.5z" />
<glyph unicode="&#xab;" horiz-adv-x="1202" d="M113 524v23l465 520l81 -84l7 -29l-334 -417l334 -437l-7 -26l-100 -70zM526 524v23l465 520l82 -84l6 -29l-334 -417l334 -437l-6 -26l-100 -70z" />
<glyph unicode="&#xac;" horiz-adv-x="1304" d="M113 680v162h1079v-625h-162v463h-917z" />
<glyph unicode="&#xad;" horiz-adv-x="876" d="M113 455v161h651v-161h-651z" />
<glyph unicode="&#xae;" horiz-adv-x="837" d="M102 1126q0 68 24 126.5t65.5 101.5t99 67.5t125.5 24.5q70 0 128 -24.5t101 -67.5t66.5 -101.5t23.5 -126.5q0 -66 -23.5 -123t-66.5 -99t-101.5 -66.5t-127.5 -24.5q-68 0 -125.5 24.5t-99 66.5t-65.5 99.5t-24 122.5zM152 1126q0 -55 20.5 -103t55 -85t83.5 -57.5 t105 -20.5q123 0 196.5 75.5t73.5 190.5q0 57 -20.5 107.5t-56.5 87.5t-86 57.5t-107 20.5q-59 0 -107.5 -20.5t-83.5 -56.5t-54 -86t-19 -110zM252 965v28q45 0 45 35v205q0 35 -45 35v28h162q76 0 100.5 -29.5t24.5 -60.5q0 -29 -18.5 -56.5t-61.5 -31.5v-8 q25 -2 37 -14.5t22 -34.5q14 -29 28.5 -46.5t37.5 -17.5q6 0 18 4l6 -6l-4 -10q-10 -10 -26.5 -16t-40.5 -6q-39 0 -56.5 19t-27.5 46q-10 18 -17.5 35.5t-25.5 32.5q-14 14 -39 14v-82q0 -16 9 -25.5t36 -9.5l8 -8l-8 -20h-164zM371 1141h18q41 0 57.5 19.5t16.5 47.5 q0 23 -12.5 41.5t-40.5 18.5q-39 0 -39 -35v-92z" />
<glyph unicode="&#xaf;" horiz-adv-x="1050" d="M113 1169v170h825v-170h-825z" />
<glyph unicode="&#xb0;" horiz-adv-x="774" d="M113 1016q0 57 21.5 107.5t58 87t87 58t107.5 21.5t107.5 -21.5t87 -58t58.5 -87t22 -107.5t-22 -107.5t-58.5 -87.5t-87 -58.5t-107.5 -21.5t-107.5 21.5t-87 58.5t-58 87t-21.5 108zM205 1016q0 -76 53 -129t129 -53q78 0 129 53t51 129q0 78 -51 129t-129 51 q-76 0 -129 -51t-53 -129z" />
<glyph unicode="&#xb1;" horiz-adv-x="1304" d="M113 0v162h1079v-162h-1079zM113 717v162h456v458h166v-458h457v-162h-457v-459h-166v459h-456z" />
<glyph unicode="&#xb2;" horiz-adv-x="860" d="M82 915v86q92 51 175 99.5t136 111.5q98 117 99 269q0 104 -43 150t-105 46q-43 0 -84 -20l-8 -10l-25 -138l-8 -6q-41 0 -75.5 22.5t-34.5 71.5q0 39 24.5 67t62 45t83 24.5t88.5 7.5q94 0 157.5 -21.5t102.5 -57.5t54 -83t15 -100q0 -90 -45 -156t-104.5 -115 t-120.5 -82.5t-94 -58.5v-14h250q25 0 46 3t39.5 15t35 34.5t32.5 61.5h27l6 -10l-29 -242h-657z" />
<glyph unicode="&#xb3;" horiz-adv-x="804" d="M82 1057q0 25 11 42t28.5 28.5t36 17.5t35.5 6l8 -8l24 -125l8 -10q49 -23 91 -23q51 0 86.5 14.5t58.5 37t34 51t11 57.5q0 78 -51 130t-168 52q-14 0 -30.5 -2t-33.5 -6l-4 67q72 8 120 23.5t76 37t39 48.5t11 61q0 63 -31.5 97.5t-103.5 34.5q-18 0 -38.5 -4.5 t-41.5 -14.5l-8 -10l-25 -135l-10 -8q-14 0 -32.5 6t-36 17t-29 28.5t-11.5 42.5q0 39 25 66.5t61.5 44t81.5 23.5t88 7q90 0 151.5 -14.5t98.5 -40t53.5 -60t16.5 -75.5q0 -23 -9 -50.5t-35 -52t-74 -43t-124 -20.5v-9q86 -4 141.5 -25.5t87 -52t43 -67.5t11.5 -72 q0 -47 -22.5 -92t-69.5 -80.5t-122 -58.5t-179 -23q-45 0 -89 7.5t-80 24t-57.5 43t-21.5 67.5z" />
<glyph unicode="&#xb4;" horiz-adv-x="653" d="M100 1180l258 473q63 0 111 -35q45 -31 72 -94l-369 -398l-41 19z" />
<glyph unicode="&#xb5;" horiz-adv-x="1341" d="M197 -602v1575l229 51h33v-657q0 -104 42 -171t150 -67q12 0 39 4t58.5 19.5t65.5 45t60 78.5v697l228 51h35v-840l172 -34v-56l-418 -119l-17 15v180h-8q-51 -94 -133 -144.5t-203 -50.5q-76 0 -131 21l70 -563l-236 -35h-36z" />
<glyph unicode="&#xb6;" horiz-adv-x="1357" d="M205 969q0 117 45 220t122 180t180 122t220 45h176v-1135h-176q-117 0 -220 45.5t-180 122t-122 180t-45 220.5zM559 -385q0 37 15.5 63.5t39 45t53 26.5t58.5 8l14 -12l58 -264l14 -10q74 0 120 22.5t72.5 58t36 80.5t9.5 93v1810h104v-1808q0 -92 -31.5 -154.5 t-78 -101.5t-101.5 -55.5t-100 -16.5q-57 0 -108.5 14.5t-90.5 41t-61.5 66.5t-22.5 93z" />
<glyph unicode="&#xb7;" horiz-adv-x="561" d="M113 535q0 70 50 118.5t118 48.5q70 0 119 -49t49 -118q0 -72 -49 -120t-119 -48q-68 0 -118 48t-50 120z" />
<glyph unicode="&#xb8;" horiz-adv-x="686" d="M113 -485q0 27 12 45t28.5 28.5t35 15.5t30.5 5q0 -90 38 -128t97 -38q41 0 64.5 17.5t23.5 45.5q0 25 -31.5 48.5t-68.5 56.5t-68.5 79t-31.5 113q0 59 21.5 100.5t49 67t53 37.5t31.5 15l21 -37q-53 -41 -53 -123q0 -43 32.5 -69.5t71.5 -56.5t71.5 -70t32.5 -107 q0 -72 -65.5 -124t-171.5 -52q-111 0 -167 37.5t-56 93.5z" />
<glyph unicode="&#xb9;" horiz-adv-x="704" d="M92 922v67q51 0 82 5t48.5 15.5t23.5 26t6 35.5v475q0 41 -27.5 61.5t-120.5 20.5v68l324 45h18v-670q0 -20 6.5 -35.5t23 -26t48 -15.5t84.5 -5l4 -10l-4 -57h-516z" />
<glyph unicode="&#xba;" horiz-adv-x="849" d="M102 623v90h646v-90h-646zM102 1130q0 66 20.5 123.5t61.5 99.5t100.5 66.5t139.5 24.5t140.5 -24.5t101.5 -66.5t61.5 -99.5t20.5 -123.5t-20.5 -122t-61.5 -98t-101.5 -66.5t-140.5 -24.5t-139.5 24.5t-100.5 66.5t-61.5 98.5t-20.5 121.5zM289 1130q0 -117 38 -183 t97 -66t98 66.5t39 182.5q0 117 -39 184.5t-98 67.5t-97 -67.5t-38 -184.5z" />
<glyph unicode="&#xbb;" horiz-adv-x="1202" d="M123 100l334 437l-334 417l6 29l82 84l465 -520v-23l-447 -520l-100 70zM537 100l333 437l-333 417l6 29l82 84l465 -520v-23l-447 -520l-100 70z" />
<glyph unicode="&#xbc;" horiz-adv-x="1497" d="M92 717v67q51 0 82 5.5t48.5 15.5t23.5 25.5t6 35.5v475q0 41 -27.5 61.5t-120.5 20.5v68l324 45h18v-670q0 -20 6.5 -35.5t23 -25.5t48 -15.5t84.5 -5.5l4 -10l-4 -57h-516zM293 0l862 1536h123l-862 -1536h-123zM709 223v45l383 551h155v-481h158l-16 -115h-142v-73 q0 -41 26.5 -62.5t117.5 -21.5l4 -11l-4 -55h-471v66q86 0 112.5 21.5t26.5 62.5v73h-350zM831 338h228v328z" />
<glyph unicode="&#xbd;" horiz-adv-x="1665" d="M92 717v67q51 0 82 5.5t48.5 15.5t23.5 25.5t6 35.5v475q0 41 -27.5 61.5t-120.5 20.5v68l324 45h18v-670q0 -20 6.5 -35.5t23 -25.5t48 -15.5t84.5 -5.5l4 -10l-4 -57h-516zM297 0l862 1536h123l-862 -1536h-123zM887 0v86q92 51 175 99t136 112q98 117 98 268 q0 104 -43 150.5t-104 46.5q-43 0 -84 -21l-8 -10l-25 -137l-8 -6q-41 0 -76 22.5t-35 71.5q0 39 25 66.5t62.5 45t82.5 24.5t88 7q94 0 158 -21.5t102.5 -57t54 -83t15.5 -100.5q0 -90 -44 -155.5t-104.5 -114.5t-122 -83t-93.5 -58v-15h249q25 0 46.5 3t40 15.5t35 35 t32.5 61.5h27l6 -10l-29 -242h-657z" />
<glyph unicode="&#xbe;" horiz-adv-x="1536" d="M82 852q0 25 11 42t28.5 28.5t36 17.5t35.5 6l8 -8l24 -125l8 -10q49 -23 91 -23q51 0 86.5 14.5t58.5 37t34 51t11 57.5q0 78 -51 130t-168 52q-14 0 -30.5 -2t-33.5 -6l-4 68q72 8 120 23.5t76 37t39 48t11 61.5q0 63 -31.5 97t-103.5 34q-18 0 -38.5 -4t-41.5 -15 l-8 -10l-25 -135l-10 -8q-14 0 -32.5 6t-36 17.5t-29 28.5t-11.5 42q0 39 25 66.5t61.5 44t81.5 23.5t88 7q90 0 151.5 -14t98.5 -40t53.5 -60.5t16.5 -75.5q0 -23 -9 -50.5t-35 -52t-74 -43t-124 -20.5v-8q86 -4 141.5 -25.5t87 -52.5t43 -68t11.5 -71q0 -47 -22.5 -92.5 t-69.5 -81t-122 -58t-179 -22.5q-45 0 -89 7t-80 23.5t-57.5 43t-21.5 67.5zM332 0l862 1536h123l-862 -1536h-123zM748 223v45l382 551h156v-481h158l-17 -115h-141v-73q0 -41 26.5 -62.5t117.5 -21.5l4 -11l-4 -55h-472v66q86 0 113 21.5t27 62.5v73h-350zM870 338h228 v328z" />
<glyph unicode="&#xbf;" horiz-adv-x="997" d="M113 -279q0 92 43 162t108.5 126.5t140 103.5t140 95t108.5 100t43 118q0 63 -34.5 95t-75.5 32q-82 0 -118 -47t-36 -107l-20 -14q-33 14 -52.5 45t-19.5 72q0 29 15.5 57.5t42 51t64.5 37t81 14.5q29 0 70.5 -8.5t81.5 -35t68 -73.5t28 -125q0 -82 -31 -148.5t-77 -125 t-100.5 -110.5t-100.5 -105.5t-76.5 -108.5t-30.5 -121q0 -72 18.5 -116t46 -68.5t58 -32.5t53.5 -8q41 0 82 12l14 10l58 252l14 12q29 0 58.5 -8t53 -26.5t39 -45t15.5 -63.5q0 -68 -36 -111t-91.5 -67.5t-123 -33.5t-128.5 -9q-80 0 -150.5 17.5t-125 56.5t-86 100 t-31.5 149zM397 967q0 70 50.5 119t117.5 49q70 0 119 -49.5t49 -118.5q0 -72 -49 -120t-119 -48q-68 0 -118 48t-50 120z" />
<glyph unicode="&#xc0;" horiz-adv-x="1564" d="M20 0v61l76 29q51 20 70.5 52t34.5 67l458 1225l250 22l13 -10l430 -1233q10 -33 33.5 -66.5t78.5 -52.5l80 -26v-68h-655v63l127 37q33 10 45 23.5t12 30.5q0 12 -5 31.5t-11 37.5l-115 344h-479l-125 -350q-4 -12 -9 -30.5t-5 -28.5q0 -23 9 -38.5t36 -21.5l141 -35 v-63h-490zM446 1817q4 31 14.5 58.5t30.5 49.5q16 23 42 39t55 25l356 -379l-20 -41l-35 -29zM492 659h419l-202 615z" />
<glyph unicode="&#xc1;" horiz-adv-x="1564" d="M20 0v61l76 29q51 20 70.5 52t34.5 67l458 1225l250 22l13 -10l430 -1233q10 -33 33.5 -66.5t78.5 -52.5l80 -26v-68h-655v63l127 37q33 10 45 23.5t12 30.5q0 12 -5 31.5t-11 37.5l-115 344h-479l-125 -350q-4 -12 -9 -30.5t-5 -28.5q0 -23 9 -38.5t36 -21.5l141 -35 v-63h-490zM492 659h419l-202 615zM637 1610l357 379q29 -8 54.5 -24.5t41.5 -39.5q20 -23 30.5 -50.5t14.5 -57.5l-442 -277l-35 29z" />
<glyph unicode="&#xc2;" horiz-adv-x="1564" d="M20 0v61l76 29q51 20 70.5 52t34.5 67l458 1225l250 22l13 -10l430 -1233q10 -33 33.5 -66.5t78.5 -52.5l80 -26v-68h-655v63l127 37q33 10 45 23.5t12 30.5q0 12 -5 31.5t-11 37.5l-115 344h-479l-125 -350q-4 -12 -9 -30.5t-5 -28.5q0 -23 9 -38.5t36 -21.5l141 -35 v-63h-490zM462 1591l258 391q35 10 62 11q16 0 29.5 -3t29.5 -8l258 -391l-30 -35l-41 -18l-248 242l-246 -242l-41 18zM492 659h419l-202 615z" />
<glyph unicode="&#xc3;" horiz-adv-x="1564" d="M20 0v61l76 29q51 20 70.5 52t34.5 67l458 1225l250 22l13 -10l430 -1233q10 -33 33.5 -66.5t78.5 -52.5l80 -26v-68h-655v63l127 37q33 10 45 23.5t12 30.5q0 12 -5 31.5t-11 37.5l-115 344h-479l-125 -350q-4 -12 -9 -30.5t-5 -28.5q0 -23 9 -38.5t36 -21.5l141 -35 v-63h-490zM368 1608q16 37 40 72.5t51.5 66.5t59.5 52.5t69 29.5q45 0 95 -14.5t99 -31t97.5 -30.5t91.5 -14q51 0 94 26.5t84 67.5l45 -39q-16 -37 -40 -74t-51.5 -67.5t-59.5 -53t-68 -30.5q-47 0 -96.5 14t-98.5 30.5t-96 31t-92 14.5q-51 0 -93.5 -24.5t-82.5 -65.5z M492 659h419l-202 615z" />
<glyph unicode="&#xc4;" horiz-adv-x="1564" d="M20 0v61l76 29q51 20 70.5 52t34.5 67l458 1225l250 22l13 -10l430 -1233q10 -33 33.5 -66.5t78.5 -52.5l80 -26v-68h-655v63l127 37q33 10 45 23.5t12 30.5q0 12 -5 31.5t-11 37.5l-115 344h-479l-125 -350q-4 -12 -9 -30.5t-5 -28.5q0 -23 9 -38.5t36 -21.5l141 -35 v-63h-490zM424 1700q0 61 45.5 106t106.5 45t106.5 -45t45.5 -106q0 -63 -45.5 -107.5t-106.5 -44.5t-106.5 44t-45.5 108zM492 659h419l-202 615zM838 1700q0 61 45 106t107 45q61 0 106 -45t45 -106q0 -63 -45 -107.5t-106 -44.5t-106.5 44t-45.5 108z" />
<glyph unicode="&#xc5;" horiz-adv-x="1564" d="M20 0v61l76 29q51 20 70.5 52t34.5 67l456 1223q-66 33 -106.5 97t-40.5 144q0 55 21.5 104.5t58.5 86.5t86 58.5t104 21.5t104.5 -21.5t86.5 -58.5t58.5 -86t21.5 -105q0 -74 -35 -135t-94 -96l430 -1229q10 -33 33.5 -66.5t78.5 -52.5l80 -26v-68h-655v63l127 37 q33 10 45 23.5t12 30.5q0 12 -5 31.5t-11 37.5l-115 344h-479l-125 -350q-4 -12 -9 -30.5t-5 -28.5q0 -23 9 -38.5t36 -21.5l141 -35v-63h-490zM492 659h419l-202 615zM623 1673q0 -68 46 -112.5t111 -44.5q66 0 112 44.5t46 112.5q0 66 -46 112t-112 46t-111.5 -46 t-45.5 -112z" />
<glyph unicode="&#xc6;" horiz-adv-x="1937" d="M20 0v61l66 29q47 20 73.5 51t43.5 68l526 1128q-37 10 -84 11v86h1133l26 -19l-71 -313l-17 -10h-43q-14 135 -82.5 195.5t-197.5 60.5h-115q-102 0 -139 -38t-37 -108v-434h270q76 0 114 43t38 172h86v-494l-70 -8l-16 8q0 109 -38 148t-114 39h-270v-445 q0 -70 33.5 -107.5t121.5 -37.5h199q35 0 84 10t101.5 38t103.5 78t90 132l41 -14l8 -19l-82 -311h-1157v86q104 0 143 37t39 108v340h-325l-164 -354q-10 -23 -14.5 -39t-4.5 -33q0 -18 10.5 -30.5t26.5 -16.5l154 -35v-63h-490zM532 659h295v543q0 33 -10 64z" />
<glyph unicode="&#xc7;" horiz-adv-x="1372" d="M43 715q0 186 62.5 327.5t171 234.5t256 140t317.5 47q33 0 78 -4t90 -10t85 -10t66 -4q43 0 70 8t41 18l27 -18l-72 -326l-14 -10h-43q-8 66 -41 114t-80 79.5t-101.5 47t-105.5 15.5q-121 0 -215 -46t-158.5 -130t-97.5 -204t-33 -269q0 -147 34 -266t98.5 -202 t158.5 -128t215 -45q33 0 87 6t115.5 31.5t121 77t104.5 141.5l51 -15l8 -18l-67 -256q-33 -16 -85 -28.5t-110.5 -22.5t-117 -15.5t-103.5 -5.5h-20q-41 -41 -41 -112q0 -43 32.5 -70t71.5 -56.5t72 -69.5t33 -107q0 -72 -66 -124.5t-172 -52.5q-111 0 -167 38t-56 93 q0 27 12 45.5t28.5 28.5t35 15.5t30.5 5.5q0 -90 38 -128t97 -38q41 0 64.5 17.5t23.5 45.5q0 25 -31.5 48.5t-68.5 56.5t-68.5 79t-31.5 113q0 66 25.5 109t56.5 67q-154 12 -284 65.5t-225 145.5t-148.5 225.5t-53.5 305.5z" />
<glyph unicode="&#xc8;" horiz-adv-x="1355" d="M63 0v86q104 0 143.5 37t39.5 108v971q0 72 -39 109t-144 37v86h1133l27 -19l-72 -313l-16 -10h-43q-14 135 -83 195.5t-198 60.5h-115q-102 0 -139 -38t-37 -108v-434h271q76 0 113.5 43t37.5 172h86v-494l-70 -8l-16 8q0 109 -38 148t-113 39h-271v-445 q0 -70 34 -107.5t122 -37.5h198q35 0 84.5 10t101.5 38t103 78t90 132l41 -14l9 -19l-82 -311h-1158zM428 1817q4 31 14.5 58.5t30.5 49.5q16 23 42 39t55 25l356 -379l-20 -41l-35 -29z" />
<glyph unicode="&#xc9;" horiz-adv-x="1355" d="M63 0v86q104 0 143.5 37t39.5 108v971q0 72 -39 109t-144 37v86h1133l27 -19l-72 -313l-16 -10h-43q-14 135 -83 195.5t-198 60.5h-115q-102 0 -139 -38t-37 -108v-434h271q76 0 113.5 43t37.5 172h86v-494l-70 -8l-16 8q0 109 -38 148t-113 39h-271v-445 q0 -70 34 -107.5t122 -37.5h198q35 0 84.5 10t101.5 38t103 78t90 132l41 -14l9 -19l-82 -311h-1158zM497 1610l357 379q29 -8 54.5 -24.5t41.5 -39.5q20 -23 30.5 -50.5t14.5 -57.5l-442 -277l-35 29z" />
<glyph unicode="&#xca;" horiz-adv-x="1355" d="M63 0v86q104 0 143.5 37t39.5 108v971q0 72 -39 109t-144 37v86h1133l27 -19l-72 -313l-16 -10h-43q-14 135 -83 195.5t-198 60.5h-115q-102 0 -139 -38t-37 -108v-434h271q76 0 113.5 43t37.5 172h86v-494l-70 -8l-16 8q0 109 -38 148t-113 39h-271v-445 q0 -70 34 -107.5t122 -37.5h198q35 0 84.5 10t101.5 38t103 78t90 132l41 -14l9 -19l-82 -311h-1158zM393 1591l258 391q35 10 62 11q16 0 29.5 -3t29.5 -8l258 -391l-30 -35l-41 -18l-248 242l-246 -242l-41 18z" />
<glyph unicode="&#xcb;" horiz-adv-x="1355" d="M63 0v86q104 0 143.5 37t39.5 108v971q0 72 -39 109t-144 37v86h1133l27 -19l-72 -313l-16 -10h-43q-14 135 -83 195.5t-198 60.5h-115q-102 0 -139 -38t-37 -108v-434h271q76 0 113.5 43t37.5 172h86v-494l-70 -8l-16 8q0 109 -38 148t-113 39h-271v-445 q0 -70 34 -107.5t122 -37.5h198q35 0 84.5 10t101.5 38t103 78t90 132l41 -14l9 -19l-82 -311h-1158zM370 1700q0 61 45.5 106t106.5 45t106.5 -45t45.5 -106q0 -63 -45.5 -107.5t-106.5 -44.5t-106.5 44t-45.5 108zM784 1700q0 61 45 106t107 45q61 0 106 -45t45 -106 q0 -63 -45 -107.5t-106 -44.5t-106.5 44t-45.5 108z" />
<glyph unicode="&#xcc;" horiz-adv-x="778" d="M63 0v86q104 0 143.5 37t39.5 108v971q0 72 -39 109t-144 37v86h644l8 -70l-8 -16q-111 0 -149 -37t-38 -109v-971q0 -72 38 -108.5t149 -36.5l8 -16l-8 -70h-644zM139 1817q4 31 14.5 58.5t30.5 49.5q16 23 42 39t55 25l356 -379l-20 -41l-35 -29z" />
<glyph unicode="&#xcd;" horiz-adv-x="778" d="M63 0v86q104 0 143.5 37t39.5 108v971q0 72 -39 109t-144 37v86h644l8 -70l-8 -16q-111 0 -149 -37t-38 -109v-971q0 -72 38 -108.5t149 -36.5l8 -16l-8 -70h-644zM139 1610l357 379q29 -8 54.5 -24.5t41.5 -39.5q20 -23 30.5 -50.5t14.5 -57.5l-442 -277l-35 29z" />
<glyph unicode="&#xce;" horiz-adv-x="778" d="M63 0v86q104 0 143.5 37t39.5 108v971q0 72 -39 109t-144 37v86h644l8 -70l-8 -16q-111 0 -149 -37t-38 -109v-971q0 -72 38 -108.5t149 -36.5l8 -16l-8 -70h-644zM73 1591l258 391q35 10 62 11q16 0 29.5 -3t29.5 -8l258 -391l-30 -35l-41 -18l-248 242l-246 -242 l-41 18z" />
<glyph unicode="&#xcf;" horiz-adv-x="778" d="M32 1700q0 61 45.5 106t106.5 45t106.5 -45t45.5 -106q0 -63 -45.5 -107.5t-106.5 -44.5t-106.5 44t-45.5 108zM63 0v86q104 0 143.5 37t39.5 108v971q0 72 -39 109t-144 37v86h644l8 -70l-8 -16q-111 0 -149 -37t-38 -109v-971q0 -72 38 -108.5t149 -36.5l8 -16l-8 -70 h-644zM446 1700q0 61 45 106t107 45q61 0 106 -45t45 -106q0 -63 -45 -107.5t-106 -44.5t-106.5 44t-45.5 108z" />
<glyph unicode="&#xd0;" horiz-adv-x="1644" d="M43 668l20 98h181v436q0 72 -39 109t-144 37v86q98 0 197.5 2t193 3t176.5 3t148 2q168 0 315.5 -46t256 -138.5t171 -228.5t62.5 -316q0 -178 -62.5 -314.5t-171 -227.5t-256 -137t-317.5 -46q-63 0 -146 2t-176.5 3t-192.5 3t-198 2v86q104 0 143.5 37t39.5 108v437 h-201zM518 231q0 -72 37 -108.5t139 -36.5h80q121 0 215 45t158.5 128t98.5 198.5t34 257.5q0 141 -33 258t-97.5 199.5t-158.5 129t-215 46.5h-102q-92 -2 -124 -41t-32 -105v-436h209l-20 -98h-189v-437z" />
<glyph unicode="&#xd1;" horiz-adv-x="1705" d="M63 0v86q104 0 143.5 37t39.5 108v979q0 63 -39 100.5t-144 37.5v86h461l809 -1000v768q0 35 -9 62.5t-33.5 46t-67.5 28t-109 9.5v86h531l8 -70l-8 -16q-111 0 -149 -37t-38 -109v-1202h-108l-981 1186v-955q0 -35 9 -62.5t33.5 -46t68.5 -27.5t114 -9l8 -16l-8 -70 h-531zM449 1587q16 37 39.5 73t51 66.5t59.5 52t69 29.5q45 0 95 -14t99 -30.5t97.5 -31t91.5 -14.5q51 0 94 27t84 67l45 -38q-16 -37 -40 -74t-51.5 -67.5t-59 -53.5t-68.5 -31q-47 0 -96.5 14.5t-98.5 31t-96 30.5t-92 14q-51 0 -93 -24.5t-83 -65.5z" />
<glyph unicode="&#xd2;" horiz-adv-x="1568" d="M43 713q0 170 54.5 308t152.5 236.5t234.5 152.5t299.5 54q164 0 300.5 -54t234.5 -152.5t152.5 -236.5t54.5 -308q0 -168 -54.5 -305.5t-152.5 -234.5t-234.5 -150.5t-300.5 -53.5t-300 53.5t-234 150.5t-152.5 234.5t-54.5 305.5zM350 713q0 -137 28 -255t82 -205 t134.5 -136t189.5 -49q106 0 188.5 49t137.5 136t83 204.5t28 257.5q0 137 -28 256t-83 207t-137 138t-189 50q-109 0 -189.5 -50t-134.5 -138t-82 -208t-28 -257zM534 1817q4 31 14.5 58.5t30.5 49.5q16 23 42 39t55 25l356 -379l-20 -41l-35 -29z" />
<glyph unicode="&#xd3;" horiz-adv-x="1568" d="M43 713q0 170 54.5 308t152.5 236.5t234.5 152.5t299.5 54q164 0 300.5 -54t234.5 -152.5t152.5 -236.5t54.5 -308q0 -168 -54.5 -305.5t-152.5 -234.5t-234.5 -150.5t-300.5 -53.5t-300 53.5t-234 150.5t-152.5 234.5t-54.5 305.5zM350 713q0 -137 28 -255t82 -205 t134.5 -136t189.5 -49q106 0 188.5 49t137.5 136t83 204.5t28 257.5q0 137 -28 256t-83 207t-137 138t-189 50q-109 0 -189.5 -50t-134.5 -138t-82 -208t-28 -257zM639 1610l357 379q29 -8 54.5 -24.5t41.5 -39.5q20 -23 30.5 -50.5t14.5 -57.5l-442 -277l-35 29z" />
<glyph unicode="&#xd4;" horiz-adv-x="1568" d="M43 713q0 170 54.5 308t152.5 236.5t234.5 152.5t299.5 54q164 0 300.5 -54t234.5 -152.5t152.5 -236.5t54.5 -308q0 -168 -54.5 -305.5t-152.5 -234.5t-234.5 -150.5t-300.5 -53.5t-300 53.5t-234 150.5t-152.5 234.5t-54.5 305.5zM350 713q0 -137 28 -255t82 -205 t134.5 -136t189.5 -49q106 0 188.5 49t137.5 136t83 204.5t28 257.5q0 137 -28 256t-83 207t-137 138t-189 50q-109 0 -189.5 -50t-134.5 -138t-82 -208t-28 -257zM464 1591l258 391q35 10 62 11q16 0 29.5 -3t29.5 -8l258 -391l-30 -35l-41 -18l-248 242l-246 -242l-41 18z " />
<glyph unicode="&#xd5;" horiz-adv-x="1568" d="M43 713q0 170 54.5 308t152.5 236.5t234.5 152.5t299.5 54q164 0 300.5 -54t234.5 -152.5t152.5 -236.5t54.5 -308q0 -168 -54.5 -305.5t-152.5 -234.5t-234.5 -150.5t-300.5 -53.5t-300 53.5t-234 150.5t-152.5 234.5t-54.5 305.5zM350 713q0 -137 28 -255t82 -205 t134.5 -136t189.5 -49q106 0 188.5 49t137.5 136t83 204.5t28 257.5q0 137 -28 256t-83 207t-137 138t-189 50q-109 0 -189.5 -50t-134.5 -138t-82 -208t-28 -257zM370 1608q16 37 40 72.5t51.5 66.5t59.5 52.5t69 29.5q45 0 95 -14.5t99 -31t97.5 -30.5t91.5 -14 q51 0 94 26.5t84 67.5l45 -39q-16 -37 -40 -74t-51.5 -67.5t-59.5 -53t-68 -30.5q-47 0 -96.5 14t-98.5 30.5t-96 31t-92 14.5q-51 0 -93.5 -24.5t-82.5 -65.5z" />
<glyph unicode="&#xd6;" horiz-adv-x="1568" d="M43 713q0 170 54.5 308t152.5 236.5t234.5 152.5t299.5 54q164 0 300.5 -54t234.5 -152.5t152.5 -236.5t54.5 -308q0 -168 -54.5 -305.5t-152.5 -234.5t-234.5 -150.5t-300.5 -53.5t-300 53.5t-234 150.5t-152.5 234.5t-54.5 305.5zM350 713q0 -137 28 -255t82 -205 t134.5 -136t189.5 -49q106 0 188.5 49t137.5 136t83 204.5t28 257.5q0 137 -28 256t-83 207t-137 138t-189 50q-109 0 -189.5 -50t-134.5 -138t-82 -208t-28 -257zM426 1700q0 61 45.5 106t106.5 45t106.5 -45t45.5 -106q0 -63 -45.5 -107.5t-106.5 -44.5t-106.5 44 t-45.5 108zM840 1700q0 61 45 106t107 45q61 0 106 -45t45 -106q0 -63 -45 -107.5t-106 -44.5t-106.5 44t-45.5 108z" />
<glyph unicode="&#xd7;" horiz-adv-x="1280" d="M113 125l409 410l-409 411l116 117l410 -412l412 412l116 -117l-411 -411l411 -410l-116 -117l-412 410l-410 -410z" />
<glyph unicode="&#xd8;" horiz-adv-x="1568" d="M43 713q0 170 54.5 308t152.5 236.5t234.5 152.5t299.5 54q178 0 326 -65l78 135l88 -51l-76 -131q152 -96 239 -259t87 -380q0 -168 -54.5 -305.5t-152.5 -234.5t-234.5 -150.5t-300.5 -53.5q-96 0 -181 18.5t-161 53.5l-75 -131l-88 51l73 129q-145 94 -227 253 t-82 370zM350 713q0 -135 25.5 -250t77.5 -201l581 1006q-49 47 -111.5 72.5t-138.5 25.5q-109 0 -189.5 -50t-134.5 -138t-82 -208t-28 -257zM520 176q104 -109 264 -108q106 0 188.5 49t137.5 136t83 204.5t28 257.5q0 141 -29 261t-88 210z" />
<glyph unicode="&#xd9;" horiz-adv-x="1681" d="M57 1348v86h668l8 -70l-8 -16q-63 0 -103 -9.5t-63.5 -28t-32 -46t-8.5 -62.5v-651q0 -143 28.5 -232.5t81 -139.5t123 -67.5t154.5 -17.5t158 22.5t128 76t86 140.5t32 218v651q0 72 -41 109t-146 37v86h494l8 -70l-8 -16q-111 0 -148.5 -37t-37.5 -109v-633 q0 -188 -54.5 -306t-134.5 -183.5t-172 -88t-166 -22.5q-129 0 -248.5 23.5t-212 88t-147.5 180.5t-55 300v641q0 72 -39 109t-144 37zM659 1817q4 31 14.5 58.5t30.5 49.5q16 23 42 39t55 25l356 -379l-20 -41l-35 -29z" />
<glyph unicode="&#xda;" horiz-adv-x="1681" d="M57 1348v86h668l8 -70l-8 -16q-63 0 -103 -9.5t-63.5 -28t-32 -46t-8.5 -62.5v-651q0 -143 28.5 -232.5t81 -139.5t123 -67.5t154.5 -17.5t158 22.5t128 76t86 140.5t32 218v651q0 72 -41 109t-146 37v86h494l8 -70l-8 -16q-111 0 -148.5 -37t-37.5 -109v-633 q0 -188 -54.5 -306t-134.5 -183.5t-172 -88t-166 -22.5q-129 0 -248.5 23.5t-212 88t-147.5 180.5t-55 300v641q0 72 -39 109t-144 37zM729 1610l357 379q29 -8 54.5 -24.5t41.5 -39.5q20 -23 30.5 -50.5t14.5 -57.5l-442 -277l-35 29z" />
<glyph unicode="&#xdb;" horiz-adv-x="1681" d="M57 1348v86h668l8 -70l-8 -16q-63 0 -103 -9.5t-63.5 -28t-32 -46t-8.5 -62.5v-651q0 -143 28.5 -232.5t81 -139.5t123 -67.5t154.5 -17.5t158 22.5t128 76t86 140.5t32 218v651q0 72 -41 109t-146 37v86h494l8 -70l-8 -16q-111 0 -148.5 -37t-37.5 -109v-633 q0 -188 -54.5 -306t-134.5 -183.5t-172 -88t-166 -22.5q-129 0 -248.5 23.5t-212 88t-147.5 180.5t-55 300v641q0 72 -39 109t-144 37zM581 1591l258 391q35 10 62 11q16 0 29.5 -3t29.5 -8l258 -391l-30 -35l-41 -18l-248 242l-246 -242l-41 18z" />
<glyph unicode="&#xdc;" horiz-adv-x="1681" d="M57 1348v86h668l8 -70l-8 -16q-63 0 -103 -9.5t-63.5 -28t-32 -46t-8.5 -62.5v-651q0 -143 28.5 -232.5t81 -139.5t123 -67.5t154.5 -17.5t158 22.5t128 76t86 140.5t32 218v651q0 72 -41 109t-146 37v86h494l8 -70l-8 -16q-111 0 -148.5 -37t-37.5 -109v-633 q0 -188 -54.5 -306t-134.5 -183.5t-172 -88t-166 -22.5q-129 0 -248.5 23.5t-212 88t-147.5 180.5t-55 300v641q0 72 -39 109t-144 37zM571 1700q0 61 45.5 106t106.5 45t106.5 -45t45.5 -106q0 -63 -45.5 -107.5t-106.5 -44.5t-106.5 44t-45.5 108zM985 1700q0 61 45 106 t107 45q61 0 106 -45t45 -106q0 -63 -45 -107.5t-106 -44.5t-106.5 44t-45.5 108z" />
<glyph unicode="&#xdd;" horiz-adv-x="1411" d="M14 1366v68h666v-64l-127 -37q-66 -20 -66 -67q0 -12 5.5 -26.5t13.5 -29.5l280 -530l297 537q10 20 14.5 33.5t4.5 23.5q0 23 -10.5 38t-38.5 23l-138 35v64h482v-62l-76 -29q-39 -16 -60.5 -52t-43.5 -66l-379 -631v-363q0 -35 8 -62.5t30.5 -46t60.5 -27.5t97 -9 l8 -16l-8 -70h-663v86q113 0 152.5 37t39.5 108v349l-356 641q-18 35 -45 69.5t-68 48.5zM561 1610l357 379q29 -8 54.5 -24.5t41.5 -39.5q20 -23 30.5 -50.5t14.5 -57.5l-442 -277l-35 29z" />
<glyph unicode="&#xde;" horiz-adv-x="1282" d="M55 0v86q104 0 143.5 37t39.5 108v971q0 72 -39 109t-144 37v86h643l9 -70l-9 -16q-111 0 -148.5 -37t-37.5 -109v-96q41 2 82 3t84 1q104 0 205.5 -13.5t182.5 -54.5t131 -115.5t50 -197.5q0 -125 -58.5 -204t-150.5 -124t-206.5 -61t-225.5 -16h-48t-46 2v-95 q0 -72 38 -108.5t148 -36.5l9 -16l-9 -70h-643zM512 426q82 0 160 9t139 40t98 90.5t37 159.5t-37 156.5t-97 84t-139 35t-161 7.5v-582z" />
<glyph unicode="&#xdf;" horiz-adv-x="1486" d="M33 903v72l174 49v102q0 195 136 310.5t402 115.5q70 0 149 -12t146.5 -39.5t112.5 -76t45 -117.5q0 -59 -37 -101.5t-81 -89.5t-80.5 -108.5t-36.5 -161.5q0 -68 35.5 -110t90 -73.5t117 -59.5t116.5 -67.5t90 -99t36 -151.5q0 -70 -31 -126.5t-84 -97.5t-123.5 -63.5 t-148.5 -22.5q-57 0 -155.5 10.5t-215.5 67.5l-12 232l16 12l92 4q0 -59 21.5 -103t55.5 -74t75 -45.5t82 -15.5q25 0 54.5 8.5t55 28t42 52t16.5 81.5q0 57 -35 96.5t-88 72t-114.5 65.5t-115 76t-88 103.5t-34.5 148.5q0 70 19.5 124t48 96t63.5 76.5t63.5 67.5t48 65.5 t19.5 71.5q0 59 -55.5 107.5t-178.5 48.5q-41 0 -88 -8t-88 -31.5t-68.5 -69t-27.5 -118.5v-1225h-434v86q98 0 135 37t37 108v672h-174z" />
<glyph unicode="&#xe0;" horiz-adv-x="1028" d="M37 238q0 106 61.5 165.5t147.5 89t177 37t150 7.5v221q0 92 -61 148.5t-184 56.5l-15 -11l-63 -252l-14 -12q-29 0 -57.5 8.5t-53.5 25.5t-40 43t-15 62q0 51 33.5 92.5t92 70t138.5 44t172 15.5q166 0 245.5 -77t79.5 -218v-496q0 -88 46.5 -124t126.5 -36l12 -12 l-15 -39q-51 -39 -111.5 -55.5t-113.5 -16.5q-61 0 -100 18.5t-61.5 48.5t-32 64.5t-9.5 67.5h-8q-2 -12 -15 -45t-44 -66.5t-80 -60.5t-123 -27q-123 0 -194.5 69t-71.5 194zM174 1524q27 63 71 94q47 35 111 35l258 -473l-31 -35l-41 -19zM295 272q0 -76 33.5 -107.5 t85.5 -31.5q20 0 43.5 8.5t46 24.5t41 44t28.5 66v201q-29 0 -75.5 -8t-92 -31.5t-78 -63.5t-32.5 -102z" />
<glyph unicode="&#xe1;" horiz-adv-x="1028" d="M37 238q0 106 61.5 165.5t147.5 89t177 37t150 7.5v221q0 92 -61 148.5t-184 56.5l-15 -11l-63 -252l-14 -12q-29 0 -57.5 8.5t-53.5 25.5t-40 43t-15 62q0 51 33.5 92.5t92 70t138.5 44t172 15.5q166 0 245.5 -77t79.5 -218v-496q0 -88 46.5 -124t126.5 -36l12 -12 l-15 -39q-51 -39 -111.5 -55.5t-113.5 -16.5q-61 0 -100 18.5t-61.5 48.5t-32 64.5t-9.5 67.5h-8q-2 -12 -15 -45t-44 -66.5t-80 -60.5t-123 -27q-123 0 -194.5 69t-71.5 194zM295 272q0 -76 33.5 -107.5t85.5 -31.5q20 0 43.5 8.5t46 24.5t41 44t28.5 66v201 q-29 0 -75.5 -8t-92 -31.5t-78 -63.5t-32.5 -102zM346 1180l258 473q63 0 111 -35q45 -31 72 -94l-369 -398l-41 19z" />
<glyph unicode="&#xe2;" horiz-adv-x="1028" d="M37 238q0 106 61.5 165.5t147.5 89t177 37t150 7.5v221q0 92 -61 148.5t-184 56.5l-15 -11l-63 -252l-14 -12q-29 0 -57.5 8.5t-53.5 25.5t-40 43t-15 62q0 51 33.5 92.5t92 70t138.5 44t172 15.5q166 0 245.5 -77t79.5 -218v-496q0 -88 46.5 -124t126.5 -36l12 -12 l-15 -39q-51 -39 -111.5 -55.5t-113.5 -16.5q-61 0 -100 18.5t-61.5 48.5t-32 64.5t-9.5 67.5h-8q-2 -12 -15 -45t-44 -66.5t-80 -60.5t-123 -27q-123 0 -194.5 69t-71.5 194zM148 1182l258 463q35 10 61 10q16 0 29.5 -3t30.5 -7l258 -463l-31 -35l-41 -19l-248 314 l-246 -314l-41 19zM295 272q0 -76 33.5 -107.5t85.5 -31.5q20 0 43.5 8.5t46 24.5t41 44t28.5 66v201q-29 0 -75.5 -8t-92 -31.5t-78 -63.5t-32.5 -102z" />
<glyph unicode="&#xe3;" horiz-adv-x="1028" d="M37 238q0 106 61.5 165.5t147.5 89t177 37t150 7.5v221q0 92 -61 148.5t-184 56.5l-15 -11l-63 -252l-14 -12q-29 0 -57.5 8.5t-53.5 25.5t-40 43t-15 62q0 51 33.5 92.5t92 70t138.5 44t172 15.5q166 0 245.5 -77t79.5 -218v-496q0 -88 46.5 -124t126.5 -36l12 -12 l-15 -39q-51 -39 -111.5 -55.5t-113.5 -16.5q-61 0 -100 18.5t-61.5 48.5t-32 64.5t-9.5 67.5h-8q-2 -12 -15 -45t-44 -66.5t-80 -60.5t-123 -27q-123 0 -194.5 69t-71.5 194zM72 1178q16 37 39.5 72.5t51 66.5t59.5 52.5t69 29.5q45 0 95 -14.5t99 -31t97.5 -30.5t91.5 -14 q51 0 94 26.5t84 67.5l45 -39q-16 -37 -40 -74t-51.5 -67.5t-59 -53t-68.5 -30.5q-47 0 -96.5 14t-98.5 30.5t-96 31t-92 14.5q-51 0 -93 -24.5t-83 -65.5zM295 272q0 -76 33.5 -107.5t85.5 -31.5q20 0 43.5 8.5t46 24.5t41 44t28.5 66v201q-29 0 -75.5 -8t-92 -31.5 t-78 -63.5t-32.5 -102z" />
<glyph unicode="&#xe4;" horiz-adv-x="1028" d="M37 238q0 106 61.5 165.5t147.5 89t177 37t150 7.5v221q0 92 -61 148.5t-184 56.5l-15 -11l-63 -252l-14 -12q-29 0 -57.5 8.5t-53.5 25.5t-40 43t-15 62q0 51 33.5 92.5t92 70t138.5 44t172 15.5q166 0 245.5 -77t79.5 -218v-496q0 -88 46.5 -124t126.5 -36l12 -12 l-15 -39q-51 -39 -111.5 -55.5t-113.5 -16.5q-61 0 -100 18.5t-61.5 48.5t-32 64.5t-9.5 67.5h-8q-2 -12 -15 -45t-44 -66.5t-80 -60.5t-123 -27q-123 0 -194.5 69t-71.5 194zM101 1290q0 61 45 106.5t106 45.5t106.5 -45t45.5 -107q0 -63 -45.5 -107t-106.5 -44t-106 44 t-45 107zM295 272q0 -76 33.5 -107.5t85.5 -31.5q20 0 43.5 8.5t46 24.5t41 44t28.5 66v201q-29 0 -75.5 -8t-92 -31.5t-78 -63.5t-32.5 -102zM514 1290q0 61 45 106.5t107 45.5q61 0 106 -45t45 -107q0 -63 -45 -107t-106 -44t-106.5 44t-45.5 107z" />
<glyph unicode="&#xe5;" horiz-adv-x="1028" d="M37 238q0 106 61.5 165.5t147.5 89t177 37t150 7.5v221q0 92 -61 148.5t-184 56.5l-15 -11l-63 -252l-14 -12q-29 0 -57.5 8.5t-53.5 25.5t-40 43t-15 62q0 51 33.5 92.5t92 70t138.5 44t172 15.5q166 0 245.5 -77t79.5 -218v-496q0 -88 46.5 -124t126.5 -36l12 -12 l-15 -39q-51 -39 -111.5 -55.5t-113.5 -16.5q-61 0 -100 18.5t-61.5 48.5t-32 64.5t-9.5 67.5h-8q-2 -12 -15 -45t-44 -66.5t-80 -60.5t-123 -27q-123 0 -194.5 69t-71.5 194zM166 1399q0 55 21.5 104t58 86t86 58.5t104.5 21.5t104.5 -21.5t86 -58.5t58 -86t21.5 -104 q0 -57 -21.5 -106.5t-58 -86.5t-86 -57.5t-104.5 -20.5t-104.5 20.5t-86 57.5t-58 86t-21.5 107zM278 1399q0 -68 46 -113t112 -45t112 45t46 113q0 66 -46 111.5t-112 45.5t-112 -46t-46 -111zM295 272q0 -76 33.5 -107.5t85.5 -31.5q20 0 43.5 8.5t46 24.5t41 44t28.5 66 v201q-29 0 -75.5 -8t-92 -31.5t-78 -63.5t-32.5 -102z" />
<glyph unicode="&#xe6;" horiz-adv-x="1521" d="M35 238q0 106 61.5 165.5t147.5 89t177 37t150 7.5v221q0 92 -61 148.5t-184 56.5l-15 -11l-63 -252l-15 -12q-29 0 -57.5 8.5t-53 25.5t-39.5 43t-15 62q0 51 33.5 92.5t92 70t138.5 44t172 15.5q188 0 268 -105q72 53 149.5 79t147.5 26q111 0 189.5 -30t129 -82 t75 -123t24.5 -155h-647q-4 -29 -6.5 -54t-2.5 -60q0 -109 31 -180.5t77 -114.5t99.5 -60.5t100.5 -17.5q98 0 177 29.5t134 74.5l14 -2l27 -30q-61 -129 -172 -199t-252 -70q-72 0 -139.5 16.5t-127 50.5t-106.5 86t-76 126h-8q-6 -41 -24.5 -89t-54 -90t-92 -71 t-138.5 -29q-123 0 -194.5 69t-71.5 194zM293 272q0 -76 33.5 -107.5t85.5 -31.5q37 0 66.5 17.5t50 42t31.5 52t11 50.5v182q-29 0 -75.5 -8t-92 -31.5t-78 -63.5t-32.5 -102zM856 750h391q0 115 -41 165t-133 50q-29 0 -61.5 -11.5t-63 -38t-55.5 -67.5t-37 -98z" />
<glyph unicode="&#xe7;" d="M31 498q0 147 49 251.5t122.5 171t161 97.5t164.5 31q102 0 176 -25t122 -62.5t71 -82.5t23 -88q0 -80 -44.5 -124t-121.5 -44l-19 12l-49 264l-4 6q-29 31 -62.5 45.5t-91.5 14.5q-37 0 -77.5 -21.5t-76.5 -72t-59.5 -130t-23.5 -196.5q0 -109 30.5 -180.5t76.5 -114.5 t99.5 -60.5t100.5 -17.5q98 0 177 28.5t134 75.5l15 -2l26 -30q-57 -117 -154.5 -185.5t-222.5 -81.5q-43 -41 -43 -114q0 -43 33 -69.5t72 -56.5t71.5 -70t32.5 -107q0 -72 -65.5 -124t-171.5 -52q-111 0 -167 37.5t-56 93.5q0 27 12 45t28.5 28.5t35 15.5t30.5 5 q0 -90 38 -128t97 -38q41 0 64.5 17.5t23.5 45.5q0 25 -31.5 48.5t-68.5 56.5t-68.5 79t-31.5 113q0 63 24.5 105.5t52.5 68.5q-90 6 -173 39t-145.5 95.5t-99 159t-36.5 227.5z" />
<glyph unicode="&#xe8;" d="M31 498q0 147 49 251.5t124 171t162 97.5t162 31q111 0 190 -30t129 -82t74.5 -123t24.5 -155h-647q-4 -29 -6 -54t-2 -60q0 -109 30.5 -180.5t76.5 -114.5t99.5 -60.5t100.5 -17.5q98 0 177 29.5t134 74.5l15 -2l26 -30q-61 -129 -171.5 -199t-252.5 -70q-96 0 -185 30 t-158.5 93.5t-110.5 161.5t-41 238zM312 1524q27 63 71 94q47 35 111 35l258 -473l-31 -35l-41 -19zM315 750h392q0 115 -41 165t-134 50q-29 0 -61.5 -11.5t-63 -38t-55 -67.5t-37.5 -98z" />
<glyph unicode="&#xe9;" d="M31 498q0 147 49 251.5t124 171t162 97.5t162 31q111 0 190 -30t129 -82t74.5 -123t24.5 -155h-647q-4 -29 -6 -54t-2 -60q0 -109 30.5 -180.5t76.5 -114.5t99.5 -60.5t100.5 -17.5q98 0 177 29.5t134 74.5l15 -2l26 -30q-61 -129 -171.5 -199t-252.5 -70q-96 0 -185 30 t-158.5 93.5t-110.5 161.5t-41 238zM315 750h392q0 115 -41 165t-134 50q-29 0 -61.5 -11.5t-63 -38t-55 -67.5t-37.5 -98zM405 1180l258 473q63 0 111 -35q45 -31 72 -94l-369 -398l-41 19z" />
<glyph unicode="&#xea;" d="M31 498q0 147 49 251.5t124 171t162 97.5t162 31q111 0 190 -30t129 -82t74.5 -123t24.5 -155h-647q-4 -29 -6 -54t-2 -60q0 -109 30.5 -180.5t76.5 -114.5t99.5 -60.5t100.5 -17.5q98 0 177 29.5t134 74.5l15 -2l26 -30q-61 -129 -171.5 -199t-252.5 -70q-96 0 -185 30 t-158.5 93.5t-110.5 161.5t-41 238zM217 1182l258 463q35 10 61 10q16 0 29.5 -3t30.5 -7l258 -463l-31 -35l-41 -19l-248 314l-246 -314l-41 19zM315 750h392q0 115 -41 165t-134 50q-29 0 -61.5 -11.5t-63 -38t-55 -67.5t-37.5 -98z" />
<glyph unicode="&#xeb;" d="M31 498q0 147 49 251.5t124 171t162 97.5t162 31q111 0 190 -30t129 -82t74.5 -123t24.5 -155h-647q-4 -29 -6 -54t-2 -60q0 -109 30.5 -180.5t76.5 -114.5t99.5 -60.5t100.5 -17.5q98 0 177 29.5t134 74.5l15 -2l26 -30q-61 -129 -171.5 -199t-252.5 -70q-96 0 -185 30 t-158.5 93.5t-110.5 161.5t-41 238zM185 1290q0 61 45 106.5t106 45.5t106.5 -45t45.5 -107q0 -63 -45.5 -107t-106.5 -44t-106 44t-45 107zM315 750h392q0 115 -41 165t-134 50q-29 0 -61.5 -11.5t-63 -38t-55 -67.5t-37.5 -98zM598 1290q0 61 45 106.5t107 45.5 q61 0 106 -45t45 -107q0 -63 -45 -107t-106 -44t-106.5 44t-45.5 107z" />
<glyph unicode="&#xec;" horiz-adv-x="684" d="M33 0v80q98 0 135 37t37 112v596l-172 37v68l418 119l16 -15v-805q0 -76 37 -112.5t139 -36.5l8 -17l-8 -63h-610zM70 1524q27 63 71 94q47 35 111 35l258 -473l-31 -35l-41 -19z" />
<glyph unicode="&#xed;" horiz-adv-x="684" d="M33 0v80q98 0 135 37t37 112v596l-172 37v68l418 119l16 -15v-805q0 -76 37 -112.5t139 -36.5l8 -17l-8 -63h-610zM166 1180l258 473q63 0 111 -35q45 -31 72 -94l-369 -398l-41 19z" />
<glyph unicode="&#xee;" horiz-adv-x="684" d="M7 1182l258 463q35 10 61 10q16 0 29.5 -3t30.5 -7l258 -463l-31 -35l-41 -19l-248 314l-246 -314l-41 19zM33 0v80q98 0 135 37t37 112v596l-172 37v68l418 119l16 -15v-805q0 -76 37 -112.5t139 -36.5l8 -17l-8 -63h-610z" />
<glyph unicode="&#xef;" horiz-adv-x="684" d="M-34 1290q0 61 45 106.5t106 45.5t106.5 -45t45.5 -107q0 -63 -45.5 -107t-106.5 -44t-106 44t-45 107zM33 0v80q98 0 135 37t37 112v596l-172 37v68l418 119l16 -15v-805q0 -76 37 -112.5t139 -36.5l8 -17l-8 -63h-610zM379 1290q0 61 45 106.5t107 45.5q61 0 106 -45 t45 -107q0 -63 -45 -107t-106 -44t-106.5 44t-45.5 107z" />
<glyph unicode="&#xf0;" horiz-adv-x="1138" d="M31 512q0 113 34.5 211t102.5 171t168 114t231 41q45 0 88 -7q-80 100 -198 183l-221 -152l-35 105l159 108q-127 72 -292 135l36 117q117 -23 220.5 -58.5t195.5 -82.5l232 157l34 -104l-163 -113q231 -158 358 -372.5t127 -452.5q0 -115 -35 -213t-103.5 -170 t-170 -113t-232.5 -41t-231 41t-168 113t-102.5 170t-34.5 213zM313 512q0 -221 68.5 -335t185.5 -114q119 0 188.5 114t69.5 335q0 217 -69.5 333t-188.5 116q-117 0 -185.5 -116t-68.5 -333z" />
<glyph unicode="&#xf1;" horiz-adv-x="1351" d="M33 0v80q98 0 135 38t37 113v594l-172 37v68l418 119l16 -15v-194h8q109 209 332 209q166 0 250 -95.5t84 -253.5v-469q0 -76 39 -113.5t129 -37.5l10 -17l-10 -63h-578v80q86 0 117 38t31 113v426q0 104 -42 171t-151 67q-10 0 -35.5 -4t-57.5 -19.5t-65.5 -45 t-60.5 -78.5v-517q0 -76 36 -113.5t134 -37.5l8 -17l-8 -63h-604zM263 1178q16 37 39.5 72.5t51 66.5t59.5 52.5t69 29.5q45 0 95 -14.5t99 -31t97.5 -30.5t91.5 -14q51 0 94 26.5t84 67.5l45 -39q-16 -37 -40 -74t-51.5 -67.5t-59 -53t-68.5 -30.5q-47 0 -96.5 14 t-98.5 30.5t-96 31t-92 14.5q-51 0 -93 -24.5t-83 -65.5z" />
<glyph unicode="&#xf2;" horiz-adv-x="1142" d="M31 512q0 113 34.5 211t102.5 171t169 114t234 41t234.5 -41t169 -114t102.5 -171t35 -211q0 -115 -35 -213t-102.5 -170t-168.5 -113t-235 -41q-133 0 -234 41t-169 113t-102.5 170t-34.5 213zM322 512q2 -221 67 -335t182 -114t183.5 114t66.5 335q0 217 -66.5 333 t-183.5 116t-183 -116t-66 -333zM351 1524q27 63 71 94q47 35 111 35l258 -473l-31 -35l-41 -19z" />
<glyph unicode="&#xf3;" horiz-adv-x="1142" d="M31 512q0 113 34.5 211t102.5 171t169 114t234 41t234.5 -41t169 -114t102.5 -171t35 -211q0 -115 -35 -213t-102.5 -170t-168.5 -113t-235 -41q-133 0 -234 41t-169 113t-102.5 170t-34.5 213zM322 512q2 -221 67 -335t182 -114t183.5 114t66.5 335q0 217 -66.5 333 t-183.5 116t-183 -116t-66 -333zM454 1180l258 473q63 0 111 -35q45 -31 72 -94l-369 -398l-41 19z" />
<glyph unicode="&#xf4;" horiz-adv-x="1142" d="M31 512q0 113 34.5 211t102.5 171t169 114t234 41t234.5 -41t169 -114t102.5 -171t35 -211q0 -115 -35 -213t-102.5 -170t-168.5 -113t-235 -41q-133 0 -234 41t-169 113t-102.5 170t-34.5 213zM252 1182l258 463q35 10 61 10q16 0 29.5 -3t30.5 -7l258 -463l-31 -35 l-41 -19l-248 314l-246 -314l-41 19zM322 512q2 -221 67 -335t182 -114t183.5 114t66.5 335q0 217 -66.5 333t-183.5 116t-183 -116t-66 -333z" />
<glyph unicode="&#xf5;" horiz-adv-x="1142" d="M31 512q0 113 34.5 211t102.5 171t169 114t234 41t234.5 -41t169 -114t102.5 -171t35 -211q0 -115 -35 -213t-102.5 -170t-168.5 -113t-235 -41q-133 0 -234 41t-169 113t-102.5 170t-34.5 213zM158 1178q16 37 39.5 72.5t51 66.5t59.5 52.5t69 29.5q45 0 95 -14.5 t99 -31t97.5 -30.5t91.5 -14q51 0 94 26.5t84 67.5l45 -39q-16 -37 -40 -74t-51.5 -67.5t-59 -53t-68.5 -30.5q-47 0 -96.5 14t-98.5 30.5t-96 31t-92 14.5q-51 0 -93 -24.5t-83 -65.5zM322 512q2 -221 67 -335t182 -114t183.5 114t66.5 335q0 217 -66.5 333t-183.5 116 t-183 -116t-66 -333z" />
<glyph unicode="&#xf6;" horiz-adv-x="1142" d="M31 512q0 113 34.5 211t102.5 171t169 114t234 41t234.5 -41t169 -114t102.5 -171t35 -211q0 -115 -35 -213t-102.5 -170t-168.5 -113t-235 -41q-133 0 -234 41t-169 113t-102.5 170t-34.5 213zM213 1290q0 61 45 106.5t106 45.5t106.5 -45t45.5 -107q0 -63 -45.5 -107 t-106.5 -44t-106 44t-45 107zM322 512q2 -221 67 -335t182 -114t183.5 114t66.5 335q0 217 -66.5 333t-183.5 116t-183 -116t-66 -333zM626 1290q0 61 45 106.5t107 45.5q61 0 106 -45t45 -107q0 -63 -45 -107t-106 -44t-106.5 44t-45.5 107z" />
<glyph unicode="&#xf7;" horiz-adv-x="1304" d="M113 453v161h1079v-161h-1079zM504 135q0 66 46 111t109 45q66 0 111 -45t45 -111t-45 -110.5t-111 -44.5q-63 0 -109 45t-46 110zM504 934q0 66 46 111t109 45q66 0 111 -45.5t45 -110.5q0 -66 -45 -111t-111 -45q-63 0 -109 45t-46 111z" />
<glyph unicode="&#xf8;" horiz-adv-x="1142" d="M31 512q0 113 34.5 211t102.5 171t169 114t234 41t236 -43l59 104l76 -43l-57 -100q113 -70 170 -189t57 -266q0 -115 -35 -213t-102.5 -170t-168.5 -113t-235 -41q-68 0 -126 11.5t-109 29.5l-57 -98l-76 43l55 94q-113 72 -170 191t-57 266zM322 512q0 -168 40 -274 l369 639q-61 84 -160 84q-117 0 -183 -116t-66 -333zM410 145q61 -82 161 -82q117 0 183.5 114t66.5 335q0 164 -41 274z" />
<glyph unicode="&#xf9;" horiz-adv-x="1341" d="M10 891l8 72l408 61h33v-657q0 -106 42 -172t150 -66q12 0 39 4t58.5 19.5t65.5 45t60 78.5v467q0 76 -36.5 103.5t-139.5 27.5l-8 17l8 70l404 63h35v-836l172 -34v-60l-418 -119l-17 15v180h-8q-106 -195 -336 -195q-166 0 -249.5 95.5t-83.5 253.5v419q0 76 -40 103.5 t-137 27.5zM387 1524q27 63 71 94q47 35 111 35l258 -473l-31 -35l-41 -19z" />
<glyph unicode="&#xfa;" horiz-adv-x="1341" d="M10 891l8 72l408 61h33v-657q0 -106 42 -172t150 -66q12 0 39 4t58.5 19.5t65.5 45t60 78.5v467q0 76 -36.5 103.5t-139.5 27.5l-8 17l8 70l404 63h35v-836l172 -34v-60l-418 -119l-17 15v180h-8q-106 -195 -336 -195q-166 0 -249.5 95.5t-83.5 253.5v419q0 76 -40 103.5 t-137 27.5zM514 1180l258 473q63 0 111 -35q45 -31 72 -94l-369 -398l-41 19z" />
<glyph unicode="&#xfb;" horiz-adv-x="1341" d="M10 891l8 72l408 61h33v-657q0 -106 42 -172t150 -66q12 0 39 4t58.5 19.5t65.5 45t60 78.5v467q0 76 -36.5 103.5t-139.5 27.5l-8 17l8 70l404 63h35v-836l172 -34v-60l-418 -119l-17 15v180h-8q-106 -195 -336 -195q-166 0 -249.5 95.5t-83.5 253.5v419q0 76 -40 103.5 t-137 27.5zM353 1182l258 463q35 10 61 10q16 0 29.5 -3t30.5 -7l258 -463l-31 -35l-41 -19l-248 314l-246 -314l-41 19z" />
<glyph unicode="&#xfc;" horiz-adv-x="1341" d="M10 891l8 72l408 61h33v-657q0 -106 42 -172t150 -66q12 0 39 4t58.5 19.5t65.5 45t60 78.5v467q0 76 -36.5 103.5t-139.5 27.5l-8 17l8 70l404 63h35v-836l172 -34v-60l-418 -119l-17 15v180h-8q-106 -195 -336 -195q-166 0 -249.5 95.5t-83.5 253.5v419q0 76 -40 103.5 t-137 27.5zM312 1290q0 61 45 106.5t106 45.5t106.5 -45t45.5 -107q0 -63 -45.5 -107t-106.5 -44t-106 44t-45 107zM725 1290q0 61 45 106.5t107 45.5q61 0 106 -45t45 -107q0 -63 -45 -107t-106 -44t-106.5 44t-45.5 107z" />
<glyph unicode="&#xfd;" horiz-adv-x="1175" d="M-31 -414q0 74 49.5 114t114.5 40l14 -12l80 -222l13 -10q61 0 104 49t72 129l116 326l-376 895l-154 61v68h576v-68l-146 -61l225 -596h13l213 596l-146 61v68h428v-68l-153 -61l-514 -1266q-29 -72 -68 -116.5t-81 -70.5t-86 -35t-83 -9q-106 0 -158.5 55t-52.5 133z M549 1180l258 473q63 0 111 -35q45 -31 72 -94l-369 -398l-41 19z" />
<glyph unicode="&#xfe;" horiz-adv-x="1247" d="M31 1421v68l418 119l16 -15v-749h8q66 117 144.5 161t170.5 44q119 0 200 -44t132 -116t74 -163t23 -185q0 -117 -33 -220.5t-96.5 -180.5t-156.5 -121t-212 -44q-10 0 -39 1t-65.5 9.5t-77.5 25t-72 46.5v-415q0 -39 8 -68t35 -48.5t73 -28.5t124 -9l8 -16l-8 -64h-654 v80q82 0 117 36t35 116v1744zM465 240q29 -100 90 -139.5t135 -39.5q61 0 109.5 34t82 91.5t52 134t18.5 164.5q0 76 -17 143.5t-52 119t-89.5 81t-127.5 29.5q-59 0 -112.5 -26.5t-88.5 -83.5v-508z" />
<glyph unicode="&#xff;" horiz-adv-x="1175" d="M-31 -414q0 74 49.5 114t114.5 40l14 -12l80 -222l13 -10q61 0 104 49t72 129l116 326l-376 895l-154 61v68h576v-68l-146 -61l225 -596h13l213 596l-146 61v68h428v-68l-153 -61l-514 -1266q-29 -72 -68 -116.5t-81 -70.5t-86 -35t-83 -9q-106 0 -158.5 55t-52.5 133z M281 1290q0 61 45 106.5t106 45.5t106.5 -45t45.5 -107q0 -63 -45.5 -107t-106.5 -44t-106 44t-45 107zM694 1290q0 61 45 106.5t107 45.5q61 0 106 -45t45 -107q0 -63 -45 -107t-106 -44t-106.5 44t-45.5 107z" />
<glyph unicode="&#x152;" horiz-adv-x="2037" d="M63 715q0 170 54.5 308t153 236.5t234.5 151.5t300 53q66 0 113 -10t75 -20h885l27 -19l-72 -313l-16 -10h-43q-25 256 -273 256h-123q-102 0 -139 -38t-37 -108v-434h268q78 0 116 43t38 172h86v-494l-70 -8l-16 8q0 109 -39 148t-115 39h-268v-445q0 -68 32 -106.5 t124 -38.5h198q35 0 84.5 10t101.5 38t103 78t90 132l41 -14l9 -19l-82 -311h-910q-35 -10 -86 -20.5t-110 -10.5q-160 0 -294 53.5t-232.5 150.5t-153 234.5t-54.5 307.5zM371 715q0 -137 28.5 -256t84 -206t136 -136t187.5 -49q59 0 121 16v1264q-55 18 -121 18 q-106 0 -187 -50t-136.5 -138t-84 -207t-28.5 -256z" />
<glyph unicode="&#x153;" horiz-adv-x="1802" d="M31 512q0 113 34.5 211t102.5 171t169 114t234 41q139 0 243 -45.5t171 -122.5q78 88 178.5 128t186.5 40q111 0 189.5 -30t128.5 -82t74.5 -123t24.5 -155h-647q-4 -29 -7 -57.5t-1 -79.5q2 -102 34 -168.5t78 -107.5t98 -57.5t97 -16.5q98 0 177 29.5t135 74.5l14 -2 l27 -30q-61 -129 -172 -199t-252 -70q-109 0 -206.5 37t-168.5 115q-68 -72 -168 -112t-234 -40q-133 0 -234 41t-169 113t-102.5 170t-34.5 213zM322 512q2 -221 67 -335t182 -114t183.5 114t66.5 335q0 217 -66.5 333t-183.5 116t-183 -116t-66 -333zM1137 750h391 q0 115 -41 165t-133 50q-29 0 -61.5 -11.5t-63.5 -38t-55.5 -67.5t-36.5 -98z" />
<glyph unicode="&#x178;" horiz-adv-x="1411" d="M14 1366v68h666v-64l-127 -37q-66 -20 -66 -67q0 -12 5.5 -26.5t13.5 -29.5l280 -530l297 537q10 20 14.5 33.5t4.5 23.5q0 23 -10.5 38t-38.5 23l-138 35v64h482v-62l-76 -29q-39 -16 -60.5 -52t-43.5 -66l-379 -631v-363q0 -35 8 -62.5t30.5 -46t60.5 -27.5t97 -9 l8 -16l-8 -70h-663v86q113 0 152.5 37t39.5 108v349l-356 641q-18 35 -45 69.5t-68 48.5zM413 1700q0 61 45.5 106t106.5 45t106.5 -45t45.5 -106q0 -63 -45.5 -107.5t-106.5 -44.5t-106.5 44t-45.5 108zM827 1700q0 61 45 106t107 45q61 0 106 -45t45 -106 q0 -63 -45 -107.5t-106 -44.5t-106.5 44t-45.5 108z" />
<glyph unicode="&#x2c6;" horiz-adv-x="862" d="M113 1182l258 463q35 10 61 10q16 0 29.5 -3t30.5 -7l258 -463l-31 -35l-41 -19l-248 314l-246 -314l-41 19z" />
<glyph unicode="&#x2dc;" horiz-adv-x="1050" d="M113 1178q16 37 39.5 72.5t51 66.5t59.5 52.5t69 29.5q45 0 95 -14.5t99 -31t97.5 -30.5t91.5 -14q51 0 94 26.5t84 67.5l45 -39q-16 -37 -40 -74t-51.5 -67.5t-59 -53t-68.5 -30.5q-47 0 -96.5 14t-98.5 30.5t-96 31t-92 14.5q-51 0 -93 -24.5t-83 -65.5z" />
<glyph unicode="&#x2000;" horiz-adv-x="996" />
<glyph unicode="&#x2001;" horiz-adv-x="1993" />
<glyph unicode="&#x2002;" horiz-adv-x="996" />
<glyph unicode="&#x2003;" horiz-adv-x="1993" />
<glyph unicode="&#x2004;" horiz-adv-x="664" />
<glyph unicode="&#x2005;" horiz-adv-x="498" />
<glyph unicode="&#x2006;" horiz-adv-x="332" />
<glyph unicode="&#x2007;" horiz-adv-x="332" />
<glyph unicode="&#x2008;" horiz-adv-x="249" />
<glyph unicode="&#x2009;" horiz-adv-x="398" />
<glyph unicode="&#x200a;" horiz-adv-x="110" />
<glyph unicode="&#x2010;" horiz-adv-x="876" d="M113 455v161h651v-161h-651z" />
<glyph unicode="&#x2011;" horiz-adv-x="876" d="M113 455v161h651v-161h-651z" />
<glyph unicode="&#x2012;" horiz-adv-x="876" d="M113 455v161h651v-161h-651z" />
<glyph unicode="&#x2013;" horiz-adv-x="1429" d="M113 455v161h1204v-161h-1204z" />
<glyph unicode="&#x2014;" horiz-adv-x="2250" d="M113 455v161h2025v-161h-2025z" />
<glyph unicode="&#x2018;" horiz-adv-x="585" d="M113 1130q0 135 64.5 265.5t189.5 222.5l41 -49v-8q-92 -76 -138.5 -180.5t-36.5 -215.5q33 16 72 17q68 0 118 -48.5t50 -119.5q0 -70 -50 -119t-118 -49q-55 0 -93 26.5t-59.5 68.5t-30.5 92t-9 97z" />
<glyph unicode="&#x2019;" horiz-adv-x="585" d="M113 1444q0 70 50 119t118 49q55 0 92 -28t59.5 -69.5t31.5 -92t9 -95.5q0 -135 -64.5 -265t-189.5 -222l-41 49v8q92 76 138 179.5t36 213.5q-31 -14 -71 -14q-68 0 -118 48t-50 120z" />
<glyph unicode="&#x201a;" horiz-adv-x="626" d="M133 143q0 70 50 119t118 49q55 0 92 -27.5t59.5 -69.5t32 -92t9.5 -95q0 -135 -64.5 -265.5t-189.5 -222.5l-41 49v9q92 76 138 180t36 215q-37 -16 -72 -17q-68 0 -118 48.5t-50 119.5z" />
<glyph unicode="&#x201c;" horiz-adv-x="1064" d="M113 1130q0 135 64.5 265.5t189.5 222.5l41 -49v-8q-92 -76 -138.5 -180.5t-36.5 -215.5q33 16 72 17q68 0 118 -48.5t50 -119.5q0 -70 -50 -119t-118 -49q-55 0 -93 26.5t-59.5 68.5t-30.5 92t-9 97zM592 1130q0 135 64.5 265.5t189.5 222.5l41 -49v-8 q-92 -76 -138.5 -180.5t-35.5 -215.5q33 16 71 17q68 0 118 -48.5t50 -119.5q0 -70 -50 -119t-118 -49q-55 0 -93 26.5t-59.5 68.5t-30.5 92t-9 97z" />
<glyph unicode="&#x201d;" horiz-adv-x="1064" d="M113 1444q0 70 50 119t118 49q55 0 92 -28t59.5 -69.5t31.5 -92t9 -95.5q0 -135 -64.5 -265t-189.5 -222l-41 49v8q92 76 138 179.5t36 213.5q-31 -14 -71 -14q-68 0 -118 48t-50 120zM592 1444q0 70 50 119t118 49q55 0 92 -28t59.5 -69.5t31.5 -92t9 -95.5 q0 -135 -64.5 -265t-189.5 -222l-41 49v8q92 76 138.5 179.5t35.5 213.5q-31 -14 -71 -14q-68 0 -118 48t-50 120z" />
<glyph unicode="&#x201e;" horiz-adv-x="1105" d="M133 143q0 70 50 119t118 49q55 0 92 -27.5t59.5 -69.5t32 -92t9.5 -95q0 -135 -64.5 -265.5t-189.5 -222.5l-41 49v9q92 76 138 180t36 215q-37 -16 -72 -17q-68 0 -118 48.5t-50 119.5zM612 143q0 70 50.5 119t117.5 49q55 0 92 -27.5t59.5 -69.5t32 -92t9.5 -95 q0 -135 -64.5 -265.5t-189.5 -222.5l-41 49v9q92 76 138 180t36 215q-37 -16 -72 -17q-68 0 -118 48.5t-50 119.5z" />
<glyph unicode="&#x2022;" horiz-adv-x="806" d="M113 535q0 59 23.5 112t63.5 93t92 62.5t111 22.5t112.5 -22.5t93.5 -62.5t62.5 -93t22.5 -112q0 -61 -22.5 -113.5t-62.5 -92.5t-93.5 -62.5t-112.5 -22.5t-111 22.5t-92 62.5t-63.5 92t-23.5 114z" />
<glyph unicode="&#x2026;" horiz-adv-x="1744" d="M133 143q0 70 50 119t118 49q70 0 119 -49t49 -119q0 -72 -49 -120t-119 -48q-68 0 -118 48.5t-50 119.5zM705 143q0 70 50 119t117 49q70 0 119 -49t49 -119q0 -72 -49 -120t-119 -48q-68 0 -117.5 48.5t-49.5 119.5zM1276 143q0 70 50 119t118 49q70 0 119 -49t49 -119 q0 -72 -49 -120t-119 -48q-68 0 -118 48.5t-50 119.5z" />
<glyph unicode="&#x202f;" horiz-adv-x="398" />
<glyph unicode="&#x2039;" horiz-adv-x="788" d="M113 524v23l465 520l81 -84l7 -29l-334 -417l334 -437l-7 -26l-100 -70z" />
<glyph unicode="&#x203a;" horiz-adv-x="788" d="M123 100l334 437l-334 417l6 29l82 84l465 -520v-23l-447 -520l-100 70z" />
<glyph unicode="&#x205f;" horiz-adv-x="498" />
<glyph unicode="&#x20ac;" horiz-adv-x="1585" d="M10 514l21 92h231q-6 51 -6 108.5t6 110.5h-252l21 93h248q31 137 103.5 239.5t174.5 171t231.5 102t274.5 33.5q33 0 78 -4t90 -10t85 -10t66 -4q43 0 70 8t41 18l27 -18l-72 -326l-14 -10h-43q-8 66 -41 114t-80 79.5t-101.5 47t-105.5 15.5q-199 0 -322 -118 t-163 -328h718l-20 -93h-713q-18 -111 0 -219h733l-20 -92h-698q41 -207 164.5 -323.5t322.5 -116.5q33 0 87 6t115.5 31.5t121 77t104.5 141.5l51 -15l8 -18l-67 -256q-33 -16 -85 -28.5t-110.5 -22.5t-117 -15.5t-103.5 -5.5q-147 0 -277 34t-233.5 101.5t-176.5 170 t-103 239.5h-269z" />
<glyph unicode="&#x2122;" horiz-adv-x="1265" d="M113 1325l14 109h395l13 -109l-3 -6l-20 -4q-10 23 -28.5 38t-40 24t-40 12.5t-26.5 3.5v-271q0 -20 12 -31.5t53 -11.5l2 -6l-2 -31h-237v37q41 0 53 11.5t12 31.5v271q-8 0 -26.5 -3.5t-40 -12.5t-41 -24.5t-27.5 -37.5l-20 4zM539 1042v33q35 0 45 10.5t12 28.5 l18 250q-2 16 -12 26.5t-45 10.5v33h191l100 -232l100 232h187l2 -27l-2 -6q-35 0 -47.5 -10.5t-12.5 -30.5l19 -246q2 -18 12 -28.5t45 -10.5l2 -6l-2 -27h-225v33q39 0 51 10.5t12 28.5l-20 238l-135 -310h-23l-143 310l-19 -238q-2 -18 9.5 -28.5t52.5 -10.5l2 -6l-2 -27 h-172z" />
<glyph unicode="&#x25fc;" horiz-adv-x="1024" d="M0 0v1024h1024v-1024h-1024z" />
</font>
</defs>
</svg>
