<?xml version="1.0" encoding="utf-8"?>
<!-- Generator: Adobe Illustrator 16.0.0, SVG Export Plug-In . SVG Version: 6.00 Build 0)  -->
<!DOCTYPE svg PUBLIC "-//W3C//DTD SVG 1.1//EN" "http://www.w3.org/Graphics/SVG/1.1/DTD/svg11.dtd">
<svg version="1.1" id="Layer_1" xmlns="http://www.w3.org/2000/svg" xmlns:xlink="http://www.w3.org/1999/xlink" x="0px" y="0px"
	 width="661.5px" height="124px" viewBox="0 5.5 661.5 124" enable-background="new 0 5.5 661.5 124" xml:space="preserve">
<path fill="#FFFFFF" d="M316.179,109.045V51.403V16.32c0,0-2.757,4.071-13.299-2.315c-0.357-0.257-0.729-0.511-1.131-0.761
	c-0.201-0.127-0.421-0.236-0.63-0.357c-0.085-0.057-0.165-0.106-0.251-0.165l-0.003,0.021c-4.071-2.292-9.212-3.454-15.448-3.454
	c-8.545,0-15.747,2.857-21.606,8.569c-5.469,5.373-8.155,12.525-8.057,21.46v13.99h-13.012v3.955h13.012v52.002
	c0,10.255-3.369,15.356-10.107,15.308v0.072h-6.82c-6.738-0.146-10.107-5.347-10.107-15.601V76.672c0-8.104-2.15-14.33-6.446-18.677
	c-4.493-4.395-10.473-6.493-17.943-6.299c-8.789,0-16.017,3.296-21.681,9.888c-0.245-5.321-1.001-8.617-2.27-9.888l-25.781,4.102
	v2.563c6.884-1.22,10.327,2.369,10.327,10.767v39.917c0,10.254-3.443,15.454-10.327,15.602c-6.885,1.172-16.257-5.493-16.257-14.136
	V53.308l-27.979,0.073v2.49c6.836,0.146,10.254,5.347,10.254,15.602l-0.072,34.717c0.048,4.395-1.271,8.203-3.955,11.426
	c-2.783,3.271-6.178,4.906-10.182,4.906c-4.346,0-7.861-1.61-10.547-4.834c-2.686-3.318-4.027-7.151-4.027-11.498v-52.88H64.366
	v2.49c6.737,0.146,10.107,5.346,10.107,15.6v32.373c0.047,8.058,2.221,14.283,6.519,18.678c4.491,4.347,10.447,6.445,17.87,6.299
	c8.887-0.049,16.114-3.344,21.681-9.888c0.244,5.226,1,6.909,2.27,8.276h31.785h38.305v-2.49
	c-6.837-0.146-10.254-5.348-10.254-15.602v-34.79c0-4.395,1.344-8.203,4.029-11.426c2.783-3.271,6.152-4.907,10.107-4.907
	c4.441-0.048,7.983,1.563,10.619,4.834c2.686,3.222,4.004,7.056,3.955,11.499v34.79c0,10.254-3.369,15.454-10.106,15.602v2.49
	h37.573h6.82h37.72v-2.563c-6.738,0-10.107-5.102-10.107-15.308V57.263h12.983v-3.955h-12.983V26.721
	c0-7.567,2.776-12.265,8.496-13.257c1.131-0.196,3.24-0.322,4.387-0.311c0.947,0.009,3.018,0.14,3.948,0.311
	c5.711,1.046,8.359,5.689,8.359,13.257l0.004,26.587v55.737c0,10.254-3.515,15.454-10.545,15.602v2.49h38.524v-2.49
	C319.596,124.499,316.179,119.299,316.179,109.045"/>
<path fill="#FFFFFF" d="M592.146,86.999c-0.488-10.84-3.808-19.506-9.961-26c-6.054-6.493-14.428-9.741-25.122-9.741
	c-10.742,0-19.531,3.834-26.367,11.499c-6.736,7.47-10.105,16.772-10.105,27.905c0,10.743,3.369,19.729,10.105,26.953
	c6.886,7.324,15.209,10.986,24.978,10.986c8.837,0,16.454-2.758,22.851-8.276c6.446-5.565,10.668-13.257,12.671-23.071h-2.344
	c-2.099,7.031-5.273,12.696-9.521,16.992c-4.247,4.297-9.497,6.52-15.747,6.665c-7.228,0.196-13.258-3.051-18.092-9.741
	c-4.834-6.736-6.934-14.795-6.299-24.17L592.146,86.999L592.146,86.999z M540.656,74.621c0.635-3.076,1.586-6.127,2.856-9.155
	c1.27-3.124,3.028-5.688,5.272-7.691c2.346-2.05,4.98-3.124,7.91-3.222c3.856-0.146,7.152,1.611,9.889,5.273
	c2.782,3.614,4.613,7.544,5.492,11.792c0.978,4.2,1.394,8.13,1.245,11.792H539.41C539.606,80.53,540.022,77.602,540.656,74.621"/>
<path fill="#FFFFFF" d="M52.011,84.582c-2.783-1.659-7.52-3.613-14.209-5.857c-7.178-2.734-11.598-4.908-13.257-6.521
	c-1.953-2.051-2.832-4.394-2.637-7.031c0.293-2.831,1.465-5.078,3.516-6.738c2.587-2.198,5.737-3.271,9.448-3.223
	c2.685-0.048,5.127,0.366,7.324,1.245c2.685,0.879,4.809,2.1,6.372,3.662c4.053,3.565,6.542,8.399,7.471,14.502h2.344l-2.344-21.973
	h-2.49c0.146,1.172-0.342,1.905-1.465,2.198c-1.074,0.293-3.175-0.195-6.299-1.465c-3.662-1.319-7.35-1.978-11.06-1.978
	c-7.374-0.048-13.209,1.978-17.505,6.079c-4.004,4.054-6.104,9.132-6.299,15.234c-0.196,9.278,4.126,16.113,12.964,20.509
	c2.001,0.831,5.127,2.025,9.375,3.588c3.32,1.025,7.006,2.418,11.06,4.176c3.026,1.318,5.225,2.809,6.592,4.468
	c1.904,2.394,2.637,5.228,2.197,8.496c-0.195,3.321-1.831,6.006-4.907,8.057c-3.369,2.197-7.813,2.906-13.33,2.124
	c-6.298-0.976-11.719-3.589-16.26-7.837c-2.149-2.051-3.614-3.979-4.395-5.786c-0.782-1.951-1.344-4.223-1.685-6.812H10.19
	l0.439,23.438h2.417c0.048-1.854,0.683-3.004,1.904-3.442c1.269-0.487,4.857,0.367,10.767,2.563
	c2.685,0.928,5.688,1.586,9.009,1.979c8.74,0.879,15.551-1.099,20.435-5.934c4.784-4.882,7.349-10.718,7.69-17.505
	C63.241,95.96,59.627,89.223,52.011,84.582"/>
<path fill="#FFFFFF" d="M526.448,53.308h-22.632v2.49c7.129,0.05,8.569,5.274,4.321,15.674l-13.33,32.886L482.21,71.472
	c-4.005-10.448-1.905-15.674,6.299-15.674v-2.49h-37.427v2.49c8.594,0,10.739,5.226,6.443,15.674l-13.55,32.886l-12.451-32.886
	c-3.955-10.448-2.051-15.674,5.713-15.674v-2.49h-37.571v2.49c4.638,0.05,8.908,5.274,12.815,15.674l20.947,55.664h4.468
	l23.511-57.349l22.634,57.349h4.612l22.854-55.664c4.295-10.448,9.274-15.674,14.939-15.674L526.448,53.308L526.448,53.308z"/>
<path fill="#FFFFFF" d="M366.584,51.478c-10.987-0.048-19.995,3.784-27.027,11.499c-6.983,7.617-10.473,16.917-10.473,27.904
	c0,10.693,3.467,19.68,10.399,26.953c7.031,7.324,15.603,10.986,25.708,10.986c10.155,0,18.897-3.809,26.221-11.426
	c7.372-7.617,11.061-16.918,11.061-27.905c-0.293-11.427-3.688-20.605-10.18-27.539C385.894,55.019,377.323,51.526,366.584,51.478
	 M378.448,114.831c-3.418,6.886-7.643,10.327-12.671,10.327c-4.834,0-8.935-3.296-12.305-9.889
	c-3.369-6.737-5.053-14.916-5.053-24.535c0-9.862,1.684-18.262,5.053-25.195c3.467-6.982,7.837-10.474,13.11-10.474
	c5.469,0,9.691,3.175,12.672,9.522c2.977,6.299,4.467,14.624,4.467,24.976C383.722,99.523,381.965,107.946,378.448,114.831"/>
<path fill="#FFFFFF" d="M653.233,55.139c-3.954-2.245-8.423-3.393-13.402-3.441c-8.202,0-14.479,3.491-18.823,10.473
	c0-5.321-0.659-8.813-1.979-10.473l-25.487,4.101v2.49c6.592-1.025,9.888,2.663,9.888,11.06v39.551
	c0,10.207-3.296,15.455-9.888,15.748v2.489h37.5v-2.489c-6.69-0.146-10.034-5.396-10.034-15.748V79.382
	c0-6.006,1.439-11.303,4.321-15.893c2.978-4.589,5.957-7.056,8.936-7.398c2.1-0.341,4.003,0.147,5.713,1.465
	c1.366,0.879,2.686,2.638,3.955,5.273c0.978,2.15,2.112,3.725,3.406,4.725c1.293,1.001,2.93,1.501,4.906,1.501
	c1.978,0,3.49-0.646,4.541-1.94c1.051-1.293,1.574-2.771,1.574-4.431C658.36,59.607,656.65,57.093,653.233,55.139"/>
</svg>
