<?xml version="1.0" encoding="utf-8"?>
<!-- Generator: Adobe Illustrator 18.1.1, SVG Export Plug-In . SVG Version: 6.00 Build 0)  -->
<svg version="1.1" id="Layer_1" xmlns="http://www.w3.org/2000/svg" xmlns:xlink="http://www.w3.org/1999/xlink" x="0px" y="0px"
	 viewBox="0 0 500 460" enable-background="new 0 0 500 460" xml:space="preserve">
<radialGradient id="SVGID_1_" cx="251.2338" cy="230.2731" r="236.8365" gradientUnits="userSpaceOnUse">
	<stop  offset="0" style="stop-color:#FBD973"/>
	<stop  offset="1" style="stop-color:#FCE985"/>
</radialGradient>
<path fill="url(#SVGID_1_)" d="M63.3,78.7c-6.2-16.1-12.1-27.6-14-31.2c30.8-2.4,42.1,4.6,43.2,5.3c10.8,13.7,15,30.1,16.1,35
	l-7.8-2.8C83.3,79.7,66.6,78.9,63.3,78.7z M364.2,400.3c-1-1-2-2.1-3.1-3.2c-1.7-1.8-3.4-3.7-5.3-5.8l0,0
	c-6.6,14-14.4,24.8-14.8,25.2l-4.7,6.4l-3.9-7.1c-1.3-2.3-12.5-22.3-22.7-37.1c-1.4,3-5.1,10.6-10.7,18.2
	c1.4,2.4,7.2,12.8,12.5,24.6c6,13.4,11.2,28.5,12.6,32.9c3.7-3.6,17.7-17.4,28.5-32.1C360.7,411.4,363.9,401.7,364.2,400.3z
	 M486.1,195.6c-19.1-28-55.6-32.4-60.9-32.9l0,0c-3.1,9.9-8.4,24.5-18.8,36.5l1-0.1c0.4,0,0.8-0.1,1.2-0.1l0.4,0
	c16.2-0.9,28.5,1.2,43.8,7.4h0c1-0.5,2-1.1,3.1-1.6C465.4,200.3,481.5,196.6,486.1,195.6z M241.1,416.1
	c-7.8-17.7-12.8-32.5-14.7-44.1c-7.6,5.3-17.3,10.8-29,16.3c-1.7,0.8-3.3,1.5-4.9,2.3c-0.1,19.7,1.7,38.9,2.5,46.2
	c6.9-2.4,17.3-6.3,28.1-11.3C229.9,422.4,236,419.2,241.1,416.1z M158.5,324.5c-6.7,1.2-15.1,2.2-25,3c-8.1,0.7-14.6,1-16.5,1.1
	c-1.3,3.7-9.7,26.4-19.2,43.6c9.5,0.6,28,1.3,44.9-0.1c6.4-0.5,12.1-1.3,16.9-2.4c-0.2-5.7-0.6-11-1.1-16.3
	C157.7,343,156.9,333.3,158.5,324.5z M29.6,160.9L29.6,160.9c7.6-7.1,13.9-11.2,21.3-13.6c-11.6-9.2-19.3-18.2-21.1-20.3
	c-2.9,1.3-17.2,8.1-27.3,26.1C5.9,154,17.6,157.3,29.6,160.9z M474.4,291.1c10.4,2.3,19.6,5.9,23.1,7.4l0-0.1
	c-2.3-12.1-12.1-28.3-32.1-34.4c-3.6,0.5-7.3,1.1-11.1,1.7l-5.3,0.8v0C459.8,273.8,472.7,289.1,474.4,291.1z M500,254
	c-3.6-6.6-11.7-16.7-30-27.6c-5.7-3.4-11.2-6.2-16.5-8.6c-1.8-0.8-3.7-1.6-5.8-2.4c-2.2-0.8-4.1-1.5-6-2.1
	c-11.1-3.6-21.5-4.9-31.9-4c-7.5,0.6-15.2,2.3-25,5.6c-2.6,1.1-5.3,2.1-8,3c-3.5,1.4-6.8,3-9.7,4.7l0,0l0,0c3.7,7.4,6.5,15,8.5,22.6
	c0.4,1.4,0.7,2.7,1,4.1c2.2-0.5,4.3-0.9,6.4-1.2c4.9-0.8,9.2-1.1,13.3-0.9c1.2,0,2.4,0.1,3.9,0.2c10.4,0.7,20.2,3.3,29.9,7.7
	c1.9,0.9,3.8,1.9,5.8,2.9c1.8-0.2,4.2-0.7,6.9-1.2c6-1.1,14.1-2.6,22.2-3.3C482,252.1,494.5,252.9,500,254L500,254z M294.8,149.4
	c1.9,1,3.7,2.1,5.6,3.2c0.5-15.7,3.2-29.5,7.8-41c3.7-9.1,12.2-21.4,25.3-36.5c-0.9-3.6-8.4-28.8-39.3-55.5
	c-1.8,9.2-5.6,26.8-10.8,41.8l0,0c5.9,18.2,6.4,38.5,1.4,60.5c-1.6,7.3-3.6,14-5.9,19.8C284.4,144,289.8,146.6,294.8,149.4z
	 M38.7,121.3c10,10.2,20.3,20.8,25.3,23.4l0.1,0.1l0,0c7.2-0.5,15.8,0.1,27.2,1.8c1.8,0.3,3.7,0.6,5.8,0.9c2,0.3,4,0.8,6,1.2
	c3.8,0.9,7.6,2.1,11.2,3.5c3.7,1.4,7.3,3.1,10.7,5c3.1,1.7,6.2,3.7,9.2,5.8l0.3-0.5c0.2-0.3,0.3-0.5,0.5-0.7c2.8-3.9,6-7.7,9.7-11.1
	l0,0c-1.7-2.1-3.6-4.5-5.7-7.2l-0.1-0.2c-1-1.2-2-2.5-3.1-3.9c-2.1-2.5-4.4-5.4-6.8-8.6c-7.3-9.8-10.5-16.5-15.3-26.7
	c-0.7-1.5-1.5-3.1-2.3-4.7c-2.5-0.8-18.2-5.9-27.5-7.8c-1.9-0.4-3.5-0.6-5.5-0.9c-1.8-0.2-3.6-0.5-5.4-0.6
	c-9.2-0.9-19.1-0.9-29.4-0.1c-13.4,1.1-25.2,3.6-32.6,5.5l0,0C16.9,98.9,28,110.3,38.7,121.3z M40.7,164.6c-1.4,1.2-2.9,2.4-4.4,3.9
	c-1.1,1.1-2.3,2.2-3.4,3.4l-0.6,0.7c-1.2,1.2-2.3,2.3-3.3,3.4c-6.5,6.6-11.1,11.3-17.4,15.7c7.8,3.5,22.4,10,33.4,14.2
	c8.2-7.1,16.6-12.2,25.1-15.3c2.6-1,5.3-1.8,8-2.4c4.4-0.9,8.3-1.3,12.4-1.2l0.2,0c11.8,0.4,22.4,2.9,31.6,7.6l0-0.3
	c0.3-2,0.7-4.1,1.2-6.4c0.5-2.2,1-4.1,1.6-5.9c0.4-1.2,0.8-2.4,1.2-3.5c0.5-1.5,1.2-3,2-4.7c0.3-0.6,0.5-1.1,0.8-1.7
	c-5.3-3.9-11.1-7.2-17.3-9.6l-0.3-0.1c-0.4-0.2-0.8-0.3-1.2-0.5c-2.3-0.9-4.7-1.7-7.3-2.3c-1.5-0.4-2.9-0.8-4.4-1.1
	c-0.7-0.1-1.4-0.3-2.1-0.4l-0.4-0.1c-0.2,0-0.4-0.1-0.5-0.1c-9.7-1.6-17.1-2.5-23.4-2.7c-3.9-0.1-7.3,0-10.5,0.4
	C53.7,156.4,47.4,159.2,40.7,164.6z M461.5,291.8c-2.7-3-6-6.6-9.5-9.8c-3.5-3.2-7.1-6.2-10.8-8.8c-2.3-1.6-4.7-3.2-7-4.5
	c-1.8-1-3.6-2-5.5-2.9c-0.9-0.4-1.8-0.9-2.7-1.3c-1.9-0.9-3.9-1.7-5.9-2.4c-1.8-0.7-3.8-1.3-5.8-1.8c-1.3-0.4-2.6-0.7-4-1
	c-4.6-1-9.4-1.6-14.2-1.8c-2.6-0.1-5.7,0-9,0.4c-2.6,0.3-5.5,0.9-8.5,1.6c0,0.4,0.1,0.8,0.1,1.2l0.1,0.6c0.2,1.8,0.3,3.6,0.4,5.4
	c0.2,5.4,0,10.7-0.8,15.9l0,0c1.1,0.3,2.2,0.6,3.4,0.9c1.1,0.3,2.2,0.7,3.3,1c2.5,0.8,4.9,1.7,7.2,2.5c24.7,8.6,43,17.6,53.8,54.7
	l0,0c2.3,0.6,13.1,3.6,22,8.1c7.4,3.7,15.1,8.8,17.9,10.8C486.3,353.2,486.6,319.7,461.5,291.8z M438.1,350.7
	c-0.3-1.3-0.5-2.3-0.8-3.3c-0.2-0.6-0.3-1.1-0.5-1.6l-0.1-0.5c-0.6-1.9-1.1-3.7-1.7-5.4c-10.4-31.1-27.4-36.9-53.1-45.6
	c-1.9-0.6-3.8-1.2-5.9-1.7c-1.2,4.3-2.8,8.3-4.7,12.1l-0.1,0.3c-0.7,1.3-1.4,2.7-2.3,4.2c-0.9,1.6-1.8,3-2.7,4.3
	c-1.3,1.8-2.6,3.7-4.1,5.4c3.9,1.1,7.5,2.3,11.2,3.7c22.7,8.5,36.8,22.8,44.3,44.8l0.1,0.1c9.3,8,16.4,18.4,19.1,22.6
	C438.8,379.4,440.7,364,438.1,350.7z M404.5,361.9c-2.1-4.3-4.6-8.1-7.5-11.6c-6.6-7.9-15.2-13.7-27.1-18.1
	c-1.1-0.4-2.2-0.8-3.3-1.2c-0.6-0.2-1.3-0.4-1.9-0.7c-4.2-1.5-10.1-2.5-13.6-3c1.7,1.5,3.2,3.1,4.6,4.9c1.6,2.1,3,4.5,4.1,7.1
	c1.7,3.9,2.8,8.3,3.6,13.7c0.7,4.7,0.4,10-0.7,15.8c-0.4,2.3-1.1,4.8-1.8,7.4c-0.6,2-1.2,4-2,5.9l0.8,1c2.9,3.4,9.8,11.3,24.9,24.3
	c14.1,12.1,22.7,21,25.5,23.9c0.7-3,2.4-11.2,2.8-25.4c0.4-12.1-1-23.3-4.2-33.3C407.6,368.9,406.1,365.2,404.5,361.9z M309.3,345.9
	c3,6.4,4.2,13.5,3.4,20.5c8.4,10.6,18.8,28,24.2,37.4c2.9-4.5,7-11.6,10.5-19.5c0.7-1.6,1.4-3.4,2.1-5.2c0.7-1.9,1.3-3.8,1.9-5.5
	c0.3-1.1,0.6-2.1,0.9-3.2c0.7-2.6,1.1-5.1,1.4-7.6c0.3-3.1,0.3-5.8,0-8.3c0-0.4-0.1-0.7-0.2-1.1l-0.1-0.6c-1.3-7.8-4-13.5-8.1-17.4
	l-0.2-0.2c-2-2-6.8-6.5-13.9-7c-1.6-0.1-3.4-0.1-5.3,0.1c-9.7,0.8-21,4.7-24.9,6.1c0.3,0.3,0.8,0.7,1.3,1.1
	C305.6,338.8,307.7,342.6,309.3,345.9z M76.7,287.5l1.1-0.1l0,0c0.2,0,0.4-0.1,0.6-0.1l0.9-0.2c1.6-2.5,12.8-18.1,40.4-24.8
	c3.1-0.8,6.6-1.3,10.4-1.6c10.9-0.9,21.4,0.3,24.7,0.8c-0.3-1.6-1.2-5.3-5-11.7c-5.2-8.8-30.4-20.6-56.8-18.4
	c-11,0.9-20.9,4.1-29.3,9.6c-22.1,14.2-29.7,49-31.1,56.2l0,0c1.5-0.4,3.4-0.9,5.4-1.5C47.7,292.8,62.4,288.7,76.7,287.5z
	 M92.2,221.5c23.4-2,41,6.5,47.1,9.9c-2.3-4.8-8-15.8-15.6-23.4c-4.8-4.8-15.7-12.6-35.2-11c-1,0.1-1.9,0.2-2.9,0.3
	c-21.1,2.7-37.1,17-44.3,28.5c-5,7.9-10.5,20.7-13,26.9C48.4,233.9,69.9,223.4,92.2,221.5z M170.7,8.8c-2.9-1.3-5.8-2.3-8.8-2.8l0,0
	c3.6,7.7,9.8,23.2,10.7,40.1c7,7.9,13.2,17.6,18.5,28.8c5,10.7,8.5,26.9,9.6,44.4c0.1,1.9,0.3,4.8,0.3,8.2l1-0.1
	c5.5-0.5,11.2-0.6,17-0.3c-3.8-14.3-7.7-45.9-1.6-69.8c-0.4-1.3-2.8-8.6-9-17.6C202,30.5,190.4,17.8,170.7,8.8z M118.2,85.1
	c10.1,34.5,30.8,56.4,34.2,59.8l0.5-0.4c0.2-0.1,0.4-0.3,0.6-0.5c0.2-0.1,0.3-0.2,0.5-0.3l0.6-0.4c1.1-0.7,2.2-1.5,3.4-2.2l0.9-0.5
	c1.2-0.7,2.4-1.4,3.7-2.1c6.1-3.2,12.8-5.7,20-7.6c1.5-0.4,3.1-0.8,4.9-1.1c1.2-0.2,2.4-0.5,3.6-0.7l0,0c0-1.5,0-3-0.1-4.6
	c-0.6-17.7-3.9-34.4-8.8-44.8c-2.3-5-4.9-9.7-7.6-13.9c-2-3.2-4.2-6.2-6.4-9c-1.7-2.1-3.4-4.1-5.4-6.1
	c-17.3-17.9-37.7-22.3-55.3-24.3c-9.2-1-19-0.6-28.5,1.3l0,0l0,0C101.4,40.7,112.7,66.1,118.2,85.1z M229.1,126.4l0.4,1.5
	c1.4,0.2,2.8,0.4,4.3,0.6c10.3,1.5,20.8,4.1,31.1,7.6c1.6,0.5,3.2,1.1,4.7,1.7l0.2-0.6c1.6-3.9,3-8.4,4.2-13.2
	c0.4-1.5,0.8-3,1.1-4.6c3.5-15.4,4.1-29.9,1.8-43c-0.4-2.5-1-5-1.8-7.9c-0.7-2.7-1.5-5.2-2.4-7.4c-3.9-10.5-10-20.1-18.2-28.6
	c-9.4-9.9-19.7-16.2-26.6-19.8l0,0l0,0c1.7,11.6,2.7,30.1-2.1,52l-0.1,0.7c-0.1,0.3-0.1,0.6-0.2,1c-0.6,2.5-1.1,5.2-1.5,8.1
	c-0.6,4.2-0.9,8.5-0.9,13c-0.1,8.5,0.8,17.4,2.7,26.7C226.9,118.1,227.9,122.3,229.1,126.4z M336.8,86.9c-2.7,3.2-5.2,6.3-7.4,9.3
	c-5.9,7.8-9.9,14.3-12,19.5c-2.6,6.5-4.5,14.1-5.7,22.4c-0.5,3.5-0.9,7.1-1.1,10.9c-0.2,2.9-0.3,5.8-0.3,8.7v1.3
	c5.3,3.6,10.5,7.5,15.3,11.6c3.6-6.6,8.7-13.1,15.1-19.1c21.9-20.7,33.4-27.4,48-33.3c8.1-22.3-6.8-64.8-10.9-74.2l0,0l0,0
	c-7.3,7-21.6,20.9-34.6,35.5C340.8,82.1,338.7,84.6,336.8,86.9z M392.7,127.6c-3,1.2-5.3,2.2-7.6,3.2c-7.1,3.3-13.9,7.7-21.8,14.1
	c-4.1,3.3-8.6,7.2-13.6,11.9l-0.5,0.5c-0.6,0.6-1.3,1.2-2,1.8c-5.9,5.6-10.5,11.4-13.6,17.3c-0.2,0.3-0.3,0.7-0.5,1
	c1.1,1.1,2.2,2.2,3.4,3.3c1,1,1.9,1.9,2.8,2.9c1.2,1.2,2.4,2.5,3.5,3.7c1.1,1.3,2.3,2.5,3.3,3.8c5.5,6.5,10.5,13.3,14.7,20.3h0
	c4.1-0.8,8.3-1.9,12.4-3.2c2.7-0.9,5.5-1.9,8.2-3c15.2-6.3,26.1-20.5,33.5-43.3c0.6-1.8,1.1-3.5,1.6-5.1c0.4-1.5,0.9-3,1.3-4.4
	l0.6-2c3.4-11.8,8.7-19.6,15.4-29.6l0.8-1.1c-11.6,1.1-27.9,3.2-39.5,7.2C394.3,127,393.5,127.3,392.7,127.6z M250.3,412
	c0.7,1.6,1.5,3.2,2.2,4.7c0.8,1.6,2,4.3,3.4,7.3c2.6,5.6,7.2,15.3,9.1,19.2c8.2-24.1,21.2-44.1,28.2-54.8l1.3-2.1
	c3.9-6.1,6.2-9.8,7.7-16.9c0.2-1,0.4-2,0.6-3c0.2-1.2,0.3-2.4,0.3-3.6l0-1.7c0.1-2.1,0.1-4.3-1.2-8.5c-2.5-7.8-9-17.5-25.4-18.6
	c-2-0.1-3.8-0.1-5.7,0c-7.5,0.6-14.8,3.6-24.3,9.9l0,0l-0.1,0.4c-0.1,0.4-0.1,0.6-0.2,0.9c-0.4,1.6-1,3.3-1.7,5.1
	c-0.7,1.8-1.5,3.3-2.3,4.7c-1.6,2.8-4.1,5.8-7.3,8.8l0,0c0.6,12.1,7.6,30.3,13.3,43.4C248.9,408.8,249.6,410.4,250.3,412z
	 M72.6,336.4c10.9-7.9,23-13.3,37.1-16.5c2-0.4,3.9-0.8,5.8-1.2c1.8-0.3,3.6-0.6,5.7-0.9c2.2-0.3,4.4-0.5,6.8-0.7
	c2.2-0.2,4.1-0.3,5.8-0.4l2.3-0.1c0.9-0.1,1.9-0.1,2.9-0.2c6.5-0.5,14.3-1.5,23.3-2.9l0,0c1.1-2.1,2.4-4,3.9-5.7
	c1.8-2.2,4.2-4.2,6.9-6c1.7-1.1,3.3-2,4.9-2.8l0.4-0.2c-0.5-2.5-1.2-4.9-2.2-7.2c-4.3-10.5-9.4-16.6-16.2-19.2
	c-5.8-2.2-12.8-3.3-27.8-2.1l-0.3,0c-7.3,0.6-25.9,3.7-40.9,18.9C78.2,302.2,73.9,324.3,72.6,336.4z M183.8,381.8
	c1.7-0.7,3.4-1.5,5.1-2.3c1.7-0.8,3.4-1.6,5.1-2.4c13.5-6.4,24-12.6,31-18.3c2.4-1.9,4.4-3.8,6-5.7c1.1-1.3,2-2.5,2.6-3.6
	c0.9-1.6,1.7-3.3,2.3-4.9c0.5-1.4,0.8-2.6,1-3.9c0-0.3,0.1-0.7,0.1-1l0-0.3c0.1-1.2,0.1-2.1,0-3c-0.1-0.9-0.3-1.8-0.5-2.9
	c-0.4-1.3-0.8-2.5-1.3-3.6c-2.3-4.9-6.8-10-13.7-15.7c-6-4.9-13.7-8-21.6-8.6c-2-0.2-4-0.2-5.8,0l-0.2,0c-0.1,0-0.2,0-0.3,0
	c-0.3,0-0.5,0.1-0.8,0.1l-0.6,0.1c-0.3,0-0.7,0.1-1,0.1c-1.5,0.2-3,0.6-4.5,1c-1.8,0.5-3.6,1.2-5.2,2c-3.2,1.6-5.8,3.5-7.8,5.9
	c-0.6,0.7-1.2,1.5-1.9,2.5c-1.1,1.7-2,3.6-2.6,5.7c-2.5,7.8-1.7,17.5-0.7,29.7c0.4,5.2,0.8,9.5,1,14.2c0.1,1.8,0.2,3.6,0.2,5.5
	c0.1,1.8,0.1,3.6,0.1,5.5c0,3.5-0.1,6.7-0.3,10C174.1,385.9,179,383.9,183.8,381.8z"/>
</svg>
